# Blender v3.1.2 OBJ File: 'room(export_by_ones).blend'
# www.blender.org
mtllib shelf.mtl
o shelf_Cube.056
v -2.373320 1.366843 0.557289
v -2.373320 1.418723 0.557289
v -2.373320 1.366843 -0.642711
v -2.373320 1.416843 -0.642711
v -2.073320 1.366843 0.557289
v -2.073320 1.410890 0.557289
v -2.372349 1.360885 -0.242711
v -2.373320 1.365903 0.157289
v -2.373320 1.416843 0.157289
v -2.372349 1.405883 -0.242711
v -2.088324 1.360885 -0.242711
v -2.088324 1.405883 -0.242711
v -2.273320 1.375098 -0.642711
v -2.273320 1.416843 -0.642711
v -2.279586 1.373892 0.557289
v -2.173320 1.370759 0.557289
v -2.171753 1.411674 0.557289
v -2.288202 1.417156 0.557289
v -2.268319 1.405883 -0.242711
v -2.178321 1.405883 -0.242711
v -2.273320 1.416843 0.157289
v -2.173320 1.416843 0.157289
v -2.178321 1.360885 -0.242711
v -2.268319 1.360885 -0.242711
v -2.173320 1.365903 0.157289
v -2.273320 1.365903 0.157289
v -2.081978 1.366843 -0.642711
v -2.073320 1.366843 -0.634053
v -2.073320 1.416843 -0.634053
v -2.081978 1.416843 -0.642711
v -2.073489 1.365847 0.149290
v -2.077255 1.365914 0.161794
v -2.092689 1.365903 0.157726
v -2.070971 1.409341 0.161794
v -2.082677 1.416720 0.149290
v -2.118683 1.416843 0.157726
v -2.175612 1.367221 -0.642711
v -2.166873 1.366843 -0.642711
v -2.170268 1.366747 -0.606502
v -2.156674 1.415710 -0.642711
v -2.179012 1.411177 -0.642711
v -2.170268 1.416666 -0.606504
vt 0.653602 0.932523
vt 0.653331 0.906447
vt 0.765382 0.903226
vt 0.770040 0.906532
vt 0.768929 0.933250
vt 0.904978 0.837737
vt 0.891963 0.834912
vt 0.891688 0.809170
vt 0.907421 0.809332
vt 0.653104 0.893059
vt 0.770616 0.840516
vt 0.770646 0.810706
vt 0.538315 0.838117
vt 0.537366 0.809170
vt 0.653746 0.810247
vt 0.653523 0.840567
vt 0.550066 0.933465
vt 0.539289 0.932815
vt 0.538451 0.907625
vt 0.541405 0.906550
vt 0.776834 0.898332
vt 0.770675 0.887480
vt 0.770305 0.870472
vt 0.892570 0.870342
vt 0.892818 0.900556
vt 0.547007 0.867234
vt 0.540729 0.861021
vt 0.653315 0.866800
vt 0.774169 0.903242
vt 0.892025 0.913748
vt 0.653918 0.987716
vt 0.653765 0.958284
vt 0.767625 0.961683
vt 0.766470 0.989771
vt 0.541387 0.991027
vt 0.540591 0.962801
vt 0.533378 0.872090
vt 0.539318 0.891628
vt 0.529244 0.889193
vt 0.541111 0.893304
vt 0.541600 0.874712
vt 0.765403 0.894266
vt 0.878986 0.970823
vt 0.877313 0.996871
vt 0.880921 0.941377
vt 0.907280 0.900808
vt 0.905219 0.869868
vt 0.521652 0.810169
vt 0.527458 0.839752
vt 0.539916 0.935224
vt 0.882896 0.913734
vt 0.535686 0.867908
vt 0.532414 0.863247
vn 0.0002 -0.9999 0.0125
vn 0.0000 0.0000 1.0000
vn 0.9993 0.0000 -0.0378
vn 0.0085 1.0000 -0.0026
vn 0.0000 0.9996 0.0274
vn 0.0000 0.9996 -0.0274
vn -0.0017 -0.9999 -0.0150
vn 0.0410 0.9991 0.0097
vn -0.0016 0.9998 0.0198
vn 0.9896 -0.1432 -0.0095
vn 0.0000 -0.9999 0.0125
vn 0.0404 -0.9989 -0.0255
vn 0.0000 0.0000 -1.0000
vn 0.0026 0.9997 0.0263
vn -0.0005 0.9996 -0.0274
vn 0.0253 0.9997 0.0065
vn 0.0364 -0.9993 0.0114
vn -0.0152 -0.9998 0.0159
vn -0.0402 -0.9989 -0.0253
vn 0.7071 0.0000 -0.7071
vn 0.9993 0.0000 0.0383
vn 0.1309 0.0273 -0.9910
vn 0.2911 0.1006 0.9514
vn -0.0200 -0.9998 0.0074
vn -0.9684 0.1000 -0.2284
vn 0.9805 0.0355 -0.1932
vn 0.9839 0.1777 -0.0191
vn 1.0000 0.0000 0.0059
usemtl shelf_lp
s off
f 23/1/1 11/2/1 31/3/1 33/4/1 25/5/1
f 15/6/2 18/7/2 2/8/2 1/9/2
f 11/2/3 12/10/3 31/3/3
f 21/11/4 9/12/4 2/8/4 18/7/4
f 14/13/5 4/14/5 10/15/5 19/16/5
f 19/16/6 10/15/6 9/12/6 21/11/6
f 39/17/7 38/18/7 27/19/7 28/20/7 11/2/7 23/1/7
f 34/21/8 36/22/8 22/23/8 17/24/8 6/25/8
f 42/26/9 41/27/9 14/13/9 19/16/9 20/28/9
f 32/29/10 34/21/10 5/30/10
f 7/31/11 24/32/11 26/33/11 8/34/11
f 24/32/11 23/1/11 25/5/11 26/33/11
f 3/35/12 13/36/12 24/32/12 7/31/12
f 38/37/13 30/38/13 27/39/13
f 20/28/6 19/16/6 21/11/6 22/23/6
f 29/40/14 30/38/14 40/41/14 42/26/14 20/28/14 12/10/14
f 12/10/15 20/28/15 22/23/15 36/22/15 35/42/15
f 22/23/16 21/11/16 18/7/16 17/24/16
f 8/34/17 26/33/17 15/43/17 1/44/17
f 26/33/18 25/5/18 16/45/18 15/43/18
f 5/46/2 6/25/2 17/24/2 16/47/2
f 16/47/2 17/24/2 18/7/2 15/6/2
f 3/48/13 4/14/13 14/13/13 13/49/13
f 13/36/19 37/50/19 39/17/19 23/1/19 24/32/19
f 29/40/20 28/20/20 27/19/20 30/38/20
f 28/20/21 29/40/21 12/10/21 11/2/21
f 32/29/22 33/4/22 36/22/22 34/21/22
f 33/4/23 31/3/23 35/42/23 36/22/23
f 25/5/24 33/4/24 32/29/24 5/51/24 16/45/24
f 38/37/25 39/52/25 42/26/25 40/41/25
f 39/52/26 37/53/26 41/27/26 42/26/26
f 13/49/13 14/13/13 37/53/13
f 31/3/27 12/10/27 35/42/27
f 5/30/28 34/21/28 6/25/28
f 37/53/13 14/13/13 41/27/13
f 30/38/13 38/37/13 40/41/13
