# Blender v3.1.2 OBJ File: 'room(export_by_ones).blend'
# www.blender.org
mtllib table.mtl
o table_Cube.042
v -2.372886 0.658611 0.531889
v -2.372886 0.720253 0.531889
v -2.372886 0.658611 -1.067499
v -2.372886 0.720253 -1.067499
v -1.572178 0.658611 0.536065
v -1.572178 0.720253 0.536065
v -1.578442 0.658611 -1.067499
v -1.578442 0.720253 -1.067499
v -2.372886 0.658611 -1.019481
v -2.372886 0.658611 0.483871
v -2.372886 0.720253 0.483871
v -2.372886 0.720253 -1.019481
v -1.576354 0.658611 0.483871
v -1.578442 0.658611 -1.019481
v -1.578442 0.720253 -1.019481
v -1.576354 0.720253 0.483871
v -1.627941 0.658611 -1.062488
v -2.323387 0.658611 -1.062488
v -2.323387 0.720253 -1.062488
v -1.627941 0.720253 -1.062488
v -2.303544 0.658611 0.544516
v -1.627941 0.658611 0.531889
v -1.627941 0.720253 0.531889
v -2.303544 0.720253 0.544516
v -2.323387 0.720253 -1.019481
v -1.627941 0.720253 -1.019481
v -2.323387 0.720253 0.483871
v -1.627941 0.720253 0.483871
v -1.627941 0.658611 -1.019481
v -2.323387 0.658611 -1.019481
v -1.627941 0.658611 0.483871
v -2.323387 0.658611 0.483871
v -2.372886 0.658611 -0.917951
v -2.372886 0.658611 0.382341
v -2.372886 0.720253 0.382341
v -2.372886 0.720253 -0.917951
v -1.578442 0.658611 0.382341
v -1.578442 0.658611 -0.917951
v -1.578442 0.720253 -0.917951
v -1.578442 0.720253 0.382341
v -2.323387 0.658611 -0.917951
v -2.323387 0.658611 0.382341
v -1.627941 0.658611 -0.917951
v -1.627941 0.658611 0.382341
v -1.627941 0.720253 -0.917951
v -1.627941 0.720253 0.382341
v -2.323387 0.720253 -0.917951
v -2.323387 0.720253 0.382341
v -2.353933 0.714188 -0.644737
v -2.220768 0.658611 -1.067498
v -2.220768 0.720253 -1.067498
v -2.372886 0.722781 0.056817
v -2.200925 0.658611 0.544516
v -2.200925 0.720253 0.544516
v -2.220768 0.720253 -1.019480
v -1.730560 0.720253 -1.019480
v -2.220768 0.720253 0.483871
v -1.730560 0.720253 0.483871
v -1.730560 0.658611 -1.019480
v -2.220768 0.658611 -1.019480
v -1.730560 0.658611 0.483871
v -2.220768 0.658611 0.483871
v -2.220768 0.720253 -0.917950
v -1.730560 0.720253 -0.917950
v -2.220768 0.720253 0.382341
v -1.730560 0.720253 0.382341
v -1.730560 0.658611 -0.917950
v -2.220768 0.658611 -0.917950
v -1.730560 0.658611 0.382341
v -2.220768 0.658611 0.382341
v -2.220768 0.024850 -1.019480
v -2.323387 0.024850 -1.019481
v -2.220768 0.024850 0.483871
v -2.323387 0.024850 0.483871
v -2.323387 0.024850 0.382341
v -1.627941 0.024850 0.382341
v -1.627941 0.024850 0.483871
v -2.323387 0.024850 -0.917951
v -1.627941 0.024850 -0.917951
v -2.220768 0.024850 -0.917950
v -2.220768 0.024850 0.382341
v -1.730560 0.024850 -1.019480
v -1.730560 0.024850 0.483871
v -1.730560 0.024850 -0.917950
v -1.730560 0.024850 0.382341
v -1.721894 0.658611 0.531889
v -1.739225 0.658611 0.531889
v -1.730560 0.658611 0.514558
v -1.739225 0.720253 0.531889
v -1.721895 0.720253 0.531889
v -1.730560 0.720253 0.514558
v -1.751101 0.658611 -1.058730
v -1.728689 0.658611 -1.067498
v -2.372886 0.668906 0.055791
v -1.728689 0.720253 -1.067498
v -1.751101 0.720253 -1.058730
v -2.353933 0.661340 -0.646495
v -1.570019 0.668906 0.142133
v -1.570019 0.722781 0.143159
v -2.304434 0.661340 -0.646495
v -2.323387 0.668906 0.055791
v -1.627941 0.661340 -0.494871
v -1.608988 0.668906 0.142133
v -1.627941 0.714188 -0.493112
v -1.608988 0.722781 0.143159
v -2.304434 0.714188 -0.644737
v -2.323387 0.722781 0.056817
v -2.220768 0.661340 -0.494871
v -2.220768 0.668906 0.055791
v -1.730560 0.661340 -0.494871
v -1.730560 0.668906 0.055791
v -1.730560 0.714188 -0.493112
v -1.730560 0.722781 0.056817
v -2.220768 0.714188 -0.493112
v -2.220768 0.722781 0.056817
v -1.595192 0.661324 -0.503851
v -1.595193 0.662075 -0.488900
v -1.618496 0.661340 -0.494871
v -1.595193 0.714928 -0.487141
v -1.595193 0.714223 -0.502091
v -1.618496 0.714188 -0.493112
v -1.730560 0.523341 0.483871
v -1.627941 0.523341 0.483871
v -1.627941 0.561219 0.386550
v -1.730560 0.523341 0.382341
v -1.724247 0.266730 0.483871
v -1.627941 0.274095 0.382341
v -1.627941 0.177296 0.474402
v -1.730560 0.274095 0.382341
v -1.730560 0.398718 0.382341
v -1.734769 0.398718 0.483871
v -1.627941 0.398718 0.382341
v -1.627941 0.398718 0.471838
v -1.654568 0.398718 0.483871
v -1.627941 0.447358 -0.917951
v -1.627941 0.236104 -0.922334
v -1.627941 0.236104 -1.013635
v -1.627941 0.447358 -1.017289
v -1.724247 0.301338 -1.019480
v -1.727403 0.514696 -1.019480
v -1.730560 0.236104 -0.917950
v -1.730560 0.447358 -0.917950
v -1.627941 0.024850 -1.013069
v -1.631844 0.024850 -1.019481
vt 0.478508 0.976765
vt 0.479164 0.959305
vt 0.492937 0.959818
vt 0.492166 0.977398
vt 0.504932 0.757521
vt 0.492529 0.756556
vt 0.493079 0.741906
vt 0.505191 0.742558
vt 0.060741 0.709150
vt 0.060031 0.728215
vt 0.043898 0.727102
vt 0.044866 0.708620
vt 0.024133 0.937604
vt 0.042441 0.936610
vt 0.045118 0.956840
vt 0.026285 0.959034
vt 0.062014 0.693524
vt 0.047759 0.692206
vt 0.059437 0.942727
vt 0.059168 0.956957
vt 0.492121 0.945031
vt 0.479332 0.945126
vt 0.088327 0.943085
vt 0.088194 0.957139
vt 0.491947 0.706815
vt 0.493457 0.722570
vt 0.478422 0.722462
vt 0.478290 0.706798
vt 0.092623 0.695374
vt 0.091850 0.710559
vt 0.478363 0.741506
vt 0.091128 0.729604
vt 0.045239 0.974778
vt 0.059136 0.974690
vt 0.450399 0.975395
vt 0.451129 0.958722
vt 0.088057 0.974526
vt 0.088313 0.988491
vt 0.059259 0.988925
vt 0.554029 0.656659
vt 0.551003 0.631212
vt 0.708157 0.612523
vt 0.711183 0.637969
vt 0.490022 0.991433
vt 0.477764 0.990794
vt 0.509620 0.914143
vt 0.491674 0.915008
vt 0.487038 0.803851
vt 0.500810 0.802342
vt 0.090349 0.744783
vt 0.060013 0.744131
vt 0.088764 0.913907
vt 0.060084 0.913351
vt 0.478124 0.756319
vt 0.477774 0.915724
vt 0.044836 0.743943
vt 0.042796 0.907296
vt 0.041806 0.994843
vt 0.058576 0.773570
vt 0.048178 0.776744
vt 0.044685 0.769630
vt 0.025513 0.728279
vt 0.026581 0.744957
vt 0.023681 0.907015
vt 0.511360 0.959118
vt 0.510795 0.944248
vt 0.508079 0.787665
vt 0.523947 0.913482
vt 0.450914 0.945261
vt 0.450133 0.916852
vt 0.179777 0.915364
vt 0.179189 0.943887
vt 0.448460 0.757111
vt 0.448224 0.742004
vt 0.163845 0.732969
vt 0.163077 0.745238
vt 0.755359 0.341591
vt 0.779448 0.339617
vt 0.784965 0.394865
vt 0.760350 0.396883
vt 0.928257 0.863352
vt 0.914257 0.853307
vt 0.916593 0.825539
vt 0.928450 0.825601
vt 0.449183 0.988926
vt 0.179277 0.972315
vt 0.179663 0.986018
vt 0.374788 0.971054
vt 0.374597 0.956035
vt 0.447242 0.723171
vt 0.165401 0.716103
vt 0.445944 0.707582
vt 0.166673 0.703707
vt 0.178972 0.957493
vt 0.996756 0.863696
vt 0.984899 0.863637
vt 0.985089 0.825888
vt 0.996946 0.825948
vt 0.318300 0.340139
vt 0.291763 0.340128
vt 0.292327 0.275759
vt 0.318696 0.275976
vt 0.984281 0.987883
vt 0.927640 0.987603
vt 0.927698 0.975871
vt 0.984339 0.976152
vt 0.184684 0.779167
vt 0.088722 0.774980
vt 0.477899 0.786009
vt 0.449030 0.785693
vt 0.491679 0.775644
vt 0.005646 0.912487
vt 0.015307 0.770256
vt 0.025992 0.774979
vt 0.030006 0.781019
vt 0.012430 0.746873
vt 0.028896 0.769880
vt 0.005714 0.943676
vt 0.044674 0.780830
vt 0.333743 0.779527
vt 0.332002 0.918348
vt 0.523728 0.944340
vt 0.268013 0.314900
vt 0.243208 0.338502
vt 0.240189 0.276163
vt 0.266425 0.275316
vt 0.928510 0.813870
vt 0.985149 0.814157
vt 0.760689 0.410860
vt 0.787207 0.410001
vt 0.792565 0.575532
vt 0.766047 0.576391
vt 0.344463 0.338263
vt 0.344777 0.276108
vt 0.814010 0.409134
vt 0.819368 0.574665
vt 0.548009 0.606036
vt 0.544983 0.580589
vt 0.702137 0.561900
vt 0.705163 0.587346
vt 0.707367 0.412586
vt 0.733886 0.411728
vt 0.739244 0.577258
vt 0.712726 0.578117
vt 0.728421 0.326594
vt 0.758396 0.397055
vt 0.732871 0.399018
vt 0.703066 0.345720
vt 0.706470 0.400653
vt 0.806307 0.337406
vt 0.811622 0.392283
vt 0.541988 0.555413
vt 0.699143 0.536723
vt 0.503571 0.775705
vt 0.516492 0.786680
vt 0.518157 0.757812
vt 0.334564 0.751021
vt 0.927941 0.926986
vt 0.984580 0.927267
vt 0.996196 0.976211
vt 0.994162 0.944834
vt 0.374493 0.942016
vt 0.330234 0.740982
vt 0.334118 0.748160
vt 0.336680 0.741249
vt 0.337611 0.736323
vt 0.333417 0.729689
vt 0.333313 0.726963
vt 0.331480 0.736100
vt 0.374122 0.984908
vt 0.915841 0.975813
vt 0.916084 0.926927
vt 0.292578 0.439439
vt 0.266636 0.439195
vt 0.266845 0.404774
vt 0.291919 0.414265
vt 0.344777 0.438712
vt 0.318792 0.438955
vt 0.318415 0.404259
vt 0.344453 0.404093
vt 0.240270 0.438897
vt 0.240761 0.404230
vt 0.291934 0.372260
vt 0.268676 0.372690
vt 0.344386 0.372176
vt 0.318318 0.372214
vt 0.240390 0.372364
vt 0.261096 0.372652
vt 0.771993 0.229571
vt 0.798657 0.227646
vt 0.802577 0.282436
vt 0.775952 0.284280
vt 0.692957 0.236312
vt 0.719147 0.233657
vt 0.722957 0.270891
vt 0.698395 0.290845
vt 0.745677 0.231492
vt 0.750201 0.286232
vn -1.0000 0.0000 0.0000
vn -0.1007 0.0000 -0.9949
vn 0.9968 0.0000 -0.0798
vn -0.1792 0.0000 0.9838
vn 0.0000 -1.0000 0.0000
vn 0.0000 1.0000 0.0000
vn 1.0000 0.0000 0.0000
vn 0.9998 0.0000 -0.0206
vn 0.0000 0.0000 -1.0000
vn 0.0187 0.0000 -0.9998
vn -0.0747 0.0000 0.9972
vn 0.0000 0.0000 1.0000
vn 0.1007 0.0000 -0.9949
vn 0.0000 1.0000 0.0078
vn -0.0000 0.9999 0.0106
vn 0.0138 -0.9993 -0.0358
vn -0.0000 -0.9995 -0.0315
vn -0.9976 -0.0011 0.0694
vn 0.9994 -0.0003 0.0351
vn 0.0000 -0.9991 -0.0428
vn -0.0034 1.0000 0.0088
vn -0.0488 0.0000 -0.9988
vn 0.0273 0.0000 0.9996
vn 0.0000 0.9999 -0.0156
vn 0.0000 0.9999 0.0143
vn 0.8860 -0.0000 -0.4637
vn 0.0579 0.0230 0.9981
vn -0.9994 0.0128 0.0315
vn 0.0337 0.0113 -0.9994
vn -0.9996 0.0129 -0.0269
vn 0.0214 0.0104 0.9997
vn -0.8944 -0.0000 0.4472
vn 0.8944 0.0000 0.4472
vn -0.9992 0.0000 -0.0389
vn 0.0497 0.0000 -0.9988
vn 0.0056 0.9999 -0.0146
vn 0.0000 -1.0000 0.0064
vn 0.0000 -0.9999 0.0137
vn -0.0065 -0.9999 0.0080
vn -0.0097 -0.9999 0.0119
vn -0.0000 0.9998 0.0222
vn 0.0000 0.9999 -0.0122
vn -0.0092 0.9999 -0.0128
vn 0.9992 -0.0006 0.0403
vn 0.0005 -1.0000 0.0065
vn 0.0093 -0.9999 0.0112
vn -0.9996 0.0007 -0.0270
vn -0.0000 -0.9999 0.0100
vn 0.0000 -0.9999 0.0108
vn -0.0049 -0.9999 0.0128
vn 0.0011 0.9999 0.0144
vn -0.0145 0.9997 0.0178
vn 0.0110 0.9998 -0.0136
vn 0.3594 -0.0310 0.9327
vn 0.2471 0.0322 -0.9685
vn 0.9992 0.0010 -0.0399
vn 0.0238 -0.0181 -0.9996
vn -0.9991 -0.0410 0.0089
vn 0.0178 0.0147 -0.9997
vn -0.9996 0.0169 -0.0207
vn 0.0423 -0.0223 0.9989
vn 0.4118 0.0105 0.9112
vn 0.4102 -0.0877 0.9078
vn 0.0214 -0.0104 0.9997
vn -0.9998 -0.0089 -0.0185
vn -0.9986 -0.0074 -0.0514
vn 0.0088 -0.0061 -0.9999
vn 0.0354 -0.0083 -0.9993
vn 0.8541 -0.0014 -0.5200
usemtl wood_table_lp
s off
f 9/1/1 12/2/1 4/3/1 3/4/1
f 17/5/2 20/6/2 8/7/2 7/8/2
f 13/9/3 16/10/3 6/11/3 5/12/3
f 21/13/4 24/14/4 2/15/4 1/16/4
f 31/17/5 13/9/5 5/12/5 22/18/5
f 27/19/6 11/20/6 2/15/6 24/14/6
f 19/21/6 4/3/6 12/2/6 25/22/6
f 48/23/6 35/24/6 11/20/6 27/19/6
f 17/25/5 7/26/5 14/27/5 29/28/5
f 44/29/5 37/30/5 13/9/5 31/17/5
f 7/26/7 8/7/7 15/31/7 14/27/7
f 37/30/8 40/32/8 16/10/8 13/9/8
f 1/33/1 2/15/1 11/20/1 10/34/1
f 33/35/1 36/36/1 12/2/1 9/1/1
f 34/37/5 42/38/5 32/39/5 10/34/5
f 30/40/9 60/41/9 71/42/9 72/43/9
f 3/4/5 18/44/5 30/45/5 9/1/5
f 50/46/10 51/47/10 96/48/10 92/49/10
f 40/32/6 46/50/6 28/51/6 16/10/6
f 65/52/6 48/23/6 27/19/6 57/53/6
f 8/7/6 20/6/6 26/54/6 15/31/6
f 51/47/6 19/21/6 25/22/6 55/55/6
f 16/10/6 28/51/6 23/56/6 6/11/6
f 57/53/6 27/19/6 24/14/6 54/57/6
f 10/34/5 32/39/5 21/58/5 1/33/5
f 28/51/6 58/59/6 91/60/6 90/61/6 23/56/6
f 5/62/11 6/11/11 23/56/11 22/63/11
f 53/64/12 54/57/12 24/14/12 21/13/12
f 3/65/13 4/3/13 19/21/13 18/66/13
f 50/46/5 92/49/5 59/67/5 60/68/5
f 55/55/6 25/22/6 47/69/6 63/70/6
f 115/71/14 107/72/14 48/23/14 65/52/14
f 15/31/6 26/54/6 45/73/6 39/74/6
f 99/75/15 105/76/15 46/50/15 40/32/15
f 137/77/7 136/78/7 79/79/7 143/80/7
f 111/81/16 103/82/16 44/83/16 69/84/16
f 9/1/5 30/45/5 41/85/5 33/35/5
f 94/86/17 101/87/17 42/38/17 34/37/17
f 10/34/1 11/20/1 35/24/1 34/37/1
f 97/88/18 49/89/18 36/36/18 33/35/18
f 14/27/7 15/31/7 39/74/7 38/90/7
f 98/91/19 99/75/19 40/32/19 37/30/19
f 29/28/5 14/27/5 38/90/5 43/92/5
f 103/93/20 98/91/20 37/30/20 44/29/20
f 25/22/6 12/2/6 36/36/6 47/69/6
f 107/72/14 52/94/14 35/24/14 48/23/14
f 101/95/17 109/96/17 70/97/17 42/98/17
f 109/96/17 111/81/17 69/84/17 70/97/17
f 129/99/9 127/100/9 76/101/9 85/102/9
f 60/103/5 59/104/5 67/105/5 68/106/5
f 105/76/21 113/107/21 66/108/21 46/50/21
f 113/107/14 115/71/14 65/52/14 66/108/14
f 26/54/6 56/109/6 64/110/6 45/73/6
f 56/109/6 55/55/6 63/70/6 64/110/6
f 18/66/22 19/21/22 51/47/22 50/46/22
f 20/6/6 95/111/6 56/109/6 26/54/6
f 62/112/5 61/113/5 88/114/5 87/115/5 53/64/5
f 61/113/5 31/116/5 22/63/5 86/117/5 88/114/5
f 32/118/5 62/112/5 53/64/5 21/13/5
f 87/115/23 89/119/23 54/57/23 53/64/23
f 58/59/6 57/53/6 54/57/6 89/119/6 91/60/6
f 112/120/24 114/121/24 115/71/24 113/107/24
f 64/110/25 63/70/25 114/121/25 112/120/25
f 46/50/6 66/108/6 58/59/6 28/51/6
f 66/108/6 65/52/6 57/53/6 58/59/6
f 18/66/5 50/46/5 60/68/5 30/122/5
f 96/48/26 56/109/26 59/67/26 92/49/26
f 128/123/27 126/124/27 83/125/27 77/126/27
f 70/97/5 69/84/5 61/127/5 62/128/5
f 70/129/7 62/130/7 73/131/7 81/132/7
f 126/133/28 129/99/28 85/102/28 83/134/28
f 62/130/12 32/135/12 74/136/12 73/131/12
f 68/137/12 41/138/12 78/139/12 80/140/12
f 32/141/1 42/142/1 75/143/1 74/144/1
f 42/142/9 70/129/9 81/132/9 75/143/9
f 60/41/7 68/137/7 80/140/7 71/42/7
f 139/145/29 137/77/29 144/146/29 82/147/29
f 141/148/30 139/145/30 82/147/30 84/149/30
f 127/100/7 128/123/7 77/126/7 76/101/7
f 136/78/31 141/150/31 84/151/31 79/79/31
f 41/138/1 30/152/1 72/153/1 78/139/1
f 88/114/32 86/117/32 90/61/32 91/60/32
f 22/63/12 23/56/12 90/61/12 86/117/12
f 87/115/33 88/114/33 91/60/33 89/119/33
f 95/111/34 93/154/34 59/155/34 56/109/34
f 59/155/5 93/154/5 17/5/5 29/156/5
f 45/73/25 64/110/25 112/120/25 104/157/25
f 93/154/35 95/111/35 20/6/35 17/5/35
f 56/109/6 96/48/6 51/47/6 55/55/6
f 104/157/36 112/120/36 113/107/36 105/76/36
f 68/106/37 67/105/37 110/158/37 108/159/37
f 108/159/38 110/158/38 111/81/38 109/96/38
f 41/160/39 68/106/39 108/159/39 100/161/39
f 100/161/40 108/159/40 109/96/40 101/95/40
f 47/69/41 36/36/41 49/89/41 106/162/41
f 106/162/42 49/89/42 52/94/42 107/72/42
f 119/163/43 121/164/43 104/157/43 105/76/43 99/75/43
f 38/90/44 39/74/44 120/165/44 116/166/44
f 43/92/45 38/90/45 116/166/45 118/167/45 102/168/45
f 102/168/46 118/167/46 117/169/46 98/91/46 103/93/46
f 34/37/1 35/24/1 52/94/1 94/86/1
f 94/86/47 52/94/47 49/89/47 97/88/47
f 33/35/48 41/85/48 100/170/48 97/88/48
f 97/88/49 100/170/49 101/87/49 94/86/49
f 67/105/37 43/171/37 102/172/37 110/158/37
f 110/158/50 102/172/50 103/82/50 111/81/50
f 39/74/51 45/73/51 104/157/51 121/164/51 120/165/51
f 63/70/52 47/69/52 106/162/52 114/121/52
f 114/121/53 106/162/53 107/72/53 115/71/53
f 118/167/54 116/166/54 120/165/54 121/164/54
f 117/169/55 118/167/55 121/164/55 119/163/55
f 117/169/56 119/163/56 99/75/56 98/91/56
f 44/173/7 31/174/7 123/175/7 124/176/7
f 61/177/1 69/178/1 125/179/1 122/180/1
f 31/174/12 61/181/12 122/182/12 123/175/12
f 69/178/57 44/173/57 124/176/57 125/179/57
f 132/183/7 133/184/7 128/123/7 127/100/7
f 131/185/58 130/186/58 129/99/58 126/133/58
f 130/186/9 132/183/9 127/100/9 129/99/9
f 125/179/59 124/176/59 132/183/59 130/186/59
f 123/175/12 122/182/12 131/187/12 134/188/12
f 122/180/60 125/179/60 130/186/60 131/185/60
f 124/176/7 123/175/7 133/184/7 132/183/7
f 128/123/61 134/188/61 131/187/61 126/124/61
f 134/188/62 128/123/62 133/184/62
f 133/184/63 123/175/63 134/188/63
f 43/189/12 67/190/12 142/191/12 135/192/12
f 135/192/64 142/191/64 141/150/64 136/78/64
f 67/193/65 59/194/65 140/195/65 142/196/65
f 142/196/66 140/195/66 139/145/66 141/148/66
f 59/194/67 29/197/67 138/198/67 140/195/67
f 140/195/68 138/198/68 137/77/68 139/145/68
f 29/197/7 43/189/7 135/192/7 138/198/7
f 138/198/7 135/192/7 136/78/7 137/77/7
f 137/77/69 143/80/69 144/146/69
