# Blender v3.1.2 OBJ File: 'room(window).blend'
# www.blender.org
mtllib trapdoor_handle.mtl
o trapdoor_handle_Torus.001
v -1.619921 3.385209 -0.566898
v -1.636383 3.385209 -0.576402
v -1.636383 3.385209 -0.595412
v -1.619921 3.385209 -0.604916
v -1.603458 3.385209 -0.595412
v -1.603458 3.385209 -0.576402
v -1.619921 3.452417 -0.594736
v -1.636383 3.445696 -0.601457
v -1.636383 3.432255 -0.614899
v -1.619921 3.425534 -0.621619
v -1.603458 3.432255 -0.614899
v -1.603458 3.445696 -0.601457
v -1.619921 3.480256 -0.661944
v -1.636383 3.470751 -0.661944
v -1.636383 3.451742 -0.661944
v -1.619921 3.442237 -0.661944
v -1.603458 3.451742 -0.661944
v -1.603458 3.470751 -0.661944
v -1.619921 3.452417 -0.729153
v -1.636383 3.445696 -0.722432
v -1.636383 3.432255 -0.708990
v -1.619921 3.425534 -0.702269
v -1.603458 3.432255 -0.708990
v -1.603458 3.445696 -0.722432
v -1.619921 3.385209 -0.756991
v -1.636383 3.385209 -0.747487
v -1.636383 3.385209 -0.728477
v -1.619921 3.385209 -0.718973
v -1.603458 3.385209 -0.728477
v -1.603458 3.385209 -0.747487
v -1.619921 3.318001 -0.729153
v -1.636383 3.324722 -0.722432
v -1.636383 3.338163 -0.708990
v -1.619921 3.344884 -0.702269
v -1.603458 3.338163 -0.708990
v -1.603458 3.324722 -0.722432
v -1.619921 3.290162 -0.661944
v -1.636383 3.299667 -0.661944
v -1.636383 3.318676 -0.661944
v -1.619921 3.328181 -0.661944
v -1.603458 3.318676 -0.661944
v -1.603458 3.299667 -0.661944
v -1.619921 3.318001 -0.594736
v -1.636383 3.324721 -0.601457
v -1.636383 3.338163 -0.614899
v -1.619921 3.344884 -0.621619
v -1.603458 3.338163 -0.614899
v -1.603458 3.324721 -0.601457
vt 0.960454 0.943475
vt 0.960332 0.966624
vt 0.953669 0.966535
vt 0.953786 0.943638
vt 0.946472 0.965793
vt 0.946437 0.943326
vt 0.991995 0.943881
vt 0.992670 0.966640
vt 0.984061 0.966524
vt 0.983194 0.943783
vt 0.974991 0.966555
vt 0.974472 0.943572
vt 0.967287 0.966479
vt 0.967164 0.943289
vt 0.959516 0.995723
vt 0.950746 0.993136
vt 0.943282 0.988756
vt 0.992739 0.988637
vt 0.985298 0.987410
vt 0.977314 0.989897
vt 0.968955 0.994073
vt 0.960366 0.800153
vt 0.959832 0.829104
vt 0.952851 0.829345
vt 0.950979 0.801729
vt 0.945140 0.829392
vt 0.942621 0.805818
vt 0.992250 0.807545
vt 0.991769 0.831058
vt 0.982497 0.830504
vt 0.983600 0.809048
vt 0.973652 0.829753
vt 0.976166 0.806874
vt 0.966552 0.829093
vt 0.969086 0.802761
vt 0.959692 0.852439
vt 0.952961 0.852574
vt 0.945494 0.852271
vt 0.991125 0.853727
vt 0.982303 0.853278
vt 0.973640 0.852773
vt 0.966401 0.852333
vt 0.959747 0.875274
vt 0.953052 0.875409
vt 0.945615 0.875082
vt 0.990997 0.876233
vt 0.982256 0.875922
vt 0.973656 0.875529
vt 0.966430 0.875145
vt 0.959912 0.898009
vt 0.953229 0.898172
vt 0.945801 0.897873
vt 0.991141 0.898737
vt 0.982403 0.898510
vt 0.973808 0.898186
vt 0.966586 0.897847
vt 0.960180 0.920723
vt 0.953504 0.920910
vt 0.946094 0.920636
vt 0.991474 0.921268
vt 0.982714 0.921109
vt 0.974093 0.920840
vt 0.966855 0.920535
vn 0.0000 0.0000 1.0000
vn 0.0000 0.7071 0.7071
vn -0.8131 0.4116 0.4116
vn -0.8131 -0.0000 0.5821
vn -0.9186 -0.2794 -0.2794
vn -0.9186 -0.0000 -0.3951
vn -0.0000 -0.7071 -0.7071
vn -0.0000 0.0000 -1.0000
vn 0.9186 -0.2794 -0.2794
vn 0.9186 -0.0000 -0.3951
vn 0.8131 0.4116 0.4116
vn 0.8131 0.0000 0.5821
vn 0.0000 1.0000 0.0000
vn -0.8131 0.5821 0.0000
vn -0.9186 -0.3951 0.0000
vn -0.0000 -1.0000 0.0000
vn 0.9186 -0.3951 0.0000
vn 0.8131 0.5821 0.0000
vn -0.0000 0.7071 -0.7071
vn -0.8131 0.4116 -0.4116
vn -0.9186 -0.2794 0.2794
vn -0.0000 -0.7071 0.7071
vn 0.9186 -0.2794 0.2794
vn 0.8131 0.4116 -0.4116
vn -0.8131 -0.0000 -0.5821
vn -0.9186 -0.0000 0.3951
vn 0.9186 -0.0000 0.3951
vn 0.8131 0.0000 -0.5821
vn -0.8131 -0.4116 -0.4116
vn -0.9186 0.2794 0.2794
vn 0.9186 0.2794 0.2794
vn 0.8131 -0.4116 -0.4116
vn -0.8131 -0.5821 -0.0000
vn -0.9186 0.3951 -0.0000
vn 0.9186 0.3951 -0.0000
vn 0.8131 -0.5821 -0.0000
vn -0.8131 -0.4116 0.4116
vn -0.9186 0.2794 -0.2794
vn 0.9186 0.2794 -0.2794
vn 0.8131 -0.4116 0.4116
usemtl door_lp
s 1
f 1/1/1 7/2/2 8/3/3 2/4/4
f 2/4/4 8/3/3 9/5/5 3/6/6
f 3/7/6 9/8/5 10/9/7 4/10/8
f 4/10/8 10/9/7 11/11/9 5/12/10
f 5/12/10 11/11/9 12/13/11 6/14/12
f 6/14/12 12/13/11 7/2/2 1/1/1
f 7/2/2 13/15/13 14/16/14 8/3/3
f 8/3/3 14/16/14 15/17/15 9/5/5
f 9/8/5 15/18/15 16/19/16 10/9/7
f 10/9/7 16/19/16 17/20/17 11/11/9
f 11/11/9 17/20/17 18/21/18 12/13/11
f 12/13/11 18/21/18 13/15/13 7/2/2
f 13/22/13 19/23/19 20/24/20 14/25/14
f 14/25/14 20/24/20 21/26/21 15/27/15
f 15/28/15 21/29/21 22/30/22 16/31/16
f 16/31/16 22/30/22 23/32/23 17/33/17
f 17/33/17 23/32/23 24/34/24 18/35/18
f 18/35/18 24/34/24 19/23/19 13/22/13
f 19/23/19 25/36/8 26/37/25 20/24/20
f 20/24/20 26/37/25 27/38/26 21/26/21
f 21/29/21 27/39/26 28/40/1 22/30/22
f 22/30/22 28/40/1 29/41/27 23/32/23
f 23/32/23 29/41/27 30/42/28 24/34/24
f 24/34/24 30/42/28 25/36/8 19/23/19
f 25/36/8 31/43/7 32/44/29 26/37/25
f 26/37/25 32/44/29 33/45/30 27/38/26
f 27/39/26 33/46/30 34/47/2 28/40/1
f 28/40/1 34/47/2 35/48/31 29/41/27
f 29/41/27 35/48/31 36/49/32 30/42/28
f 30/42/28 36/49/32 31/43/7 25/36/8
f 31/43/7 37/50/16 38/51/33 32/44/29
f 32/44/29 38/51/33 39/52/34 33/45/30
f 33/46/30 39/53/34 40/54/13 34/47/2
f 34/47/2 40/54/13 41/55/35 35/48/31
f 35/48/31 41/55/35 42/56/36 36/49/32
f 36/49/32 42/56/36 37/50/16 31/43/7
f 37/50/16 43/57/22 44/58/37 38/51/33
f 38/51/33 44/58/37 45/59/38 39/52/34
f 39/53/34 45/60/38 46/61/19 40/54/13
f 40/54/13 46/61/19 47/62/39 41/55/35
f 41/55/35 47/62/39 48/63/40 42/56/36
f 42/56/36 48/63/40 43/57/22 37/50/16
f 43/57/22 1/1/1 2/4/4 44/58/37
f 44/58/37 2/4/4 3/6/6 45/59/38
f 45/60/38 3/7/6 4/10/8 46/61/19
f 46/61/19 4/10/8 5/12/10 47/62/39
f 47/62/39 5/12/10 6/14/12 48/63/40
f 48/63/40 6/14/12 1/1/1 43/57/22
