# Blender v3.1.2 OBJ File: 'room(window).blend'
# www.blender.org
mtllib trapdoor_handle_part.mtl
o trapdoor_handle_part_Cube.053
v -1.646462 3.488922 -0.683032
v -1.561183 3.489373 -0.683032
v -1.561000 3.454832 -0.683032
v -1.646462 3.488922 -0.649002
v -1.561183 3.489373 -0.649002
v -1.561000 3.454832 -0.649002
v -1.593724 3.489201 -0.683032
v -1.593383 3.424814 -0.683032
v -1.593383 3.424814 -0.649002
v -1.593724 3.489201 -0.649002
v -1.638489 3.424575 -0.683032
v -1.646162 3.432167 -0.683032
v -1.646162 3.432167 -0.649002
v -1.638489 3.424575 -0.649002
vt 0.759578 0.093451
vt 0.742291 0.102568
vt 0.732612 0.084219
vt 0.744538 0.066419
vt 0.718230 0.070352
vt 0.733668 0.057836
vt 0.700363 0.063290
vt 0.707016 0.046458
vt 0.746494 0.038886
vt 0.745793 0.044857
vt 0.721533 0.023264
vt 0.718536 0.098818
vt 0.704154 0.084951
vt 0.762437 0.050736
vt 0.766259 0.012294
vt 0.782202 0.024145
vt 0.755598 0.053006
vt 0.782202 0.075084
vn 0.0000 0.0000 -1.0000
vn 0.6798 -0.7334 0.0000
vn 0.0000 0.0000 1.0000
vn 1.0000 0.0053 0.0000
vn -1.0000 -0.0053 0.0000
vn 0.0053 -1.0000 0.0000
vn -0.7034 -0.7108 0.0000
usemtl door_lp
s off
f 7/1/1 2/2/1 3/3/1 8/4/1
f 8/4/2 3/3/2 6/5/2 9/6/2
f 9/6/3 6/5/3 5/7/3 10/8/3
f 13/9/3 14/10/3 9/6/3 10/8/3 4/11/3
f 6/5/4 3/3/4 2/12/4 5/13/4
f 12/14/5 13/9/5 4/15/5 1/16/5
f 11/17/6 8/4/6 9/6/6 14/10/6
f 13/9/7 12/14/7 11/17/7 14/10/7
f 1/18/1 7/1/1 8/4/1 11/17/1 12/14/1
