# Blender v3.1.2 OBJ File: 'room(window).blend'
# www.blender.org
mtllib window_frame.mtl
o window_frame_Cube.024
v 0.660454 1.689316 -1.952297
v 0.660454 1.689316 -2.159500
v -0.205355 1.689316 -1.952297
v -0.205355 1.689316 -2.159500
v 0.907428 1.689316 -1.952297
v 0.907428 1.689316 -2.159500
v -0.452328 1.689316 -1.952297
v -0.452328 1.689316 -2.159500
v 0.660454 1.868769 -1.952297
v 0.660454 1.883038 -1.952297
v 0.668491 1.876791 -1.960284
v 0.660454 1.883038 -2.159500
v 0.660454 1.868769 -2.159500
v 0.668491 1.875903 -2.159500
v 0.660454 2.073037 -2.159500
v 0.660454 2.058768 -2.159500
v 0.668491 2.065902 -2.159500
v 0.672170 2.058768 -1.952297
v 0.670040 2.073037 -1.952297
v 0.668491 2.066790 -1.960284
v 0.658445 2.259763 -2.159500
v 0.660454 2.245713 -2.159500
v 0.664180 2.253416 -2.159500
v 0.660454 2.245713 -1.952297
v 0.664180 2.254303 -1.960284
v 0.600534 2.444838 -2.159500
v 0.607868 2.432891 -2.159500
v 0.610422 2.442979 -2.159500
v 0.607868 2.432891 -1.952297
v 0.600534 2.444838 -1.952297
v 0.610422 2.443866 -1.960284
v 0.406068 2.622267 -2.159500
v 0.418448 2.615700 -2.159500
v 0.416943 2.627077 -2.159500
v 0.418448 2.615700 -1.952297
v 0.406068 2.617830 -1.952297
v 0.416943 2.627965 -1.968804
v 0.220508 2.660966 -2.159500
v 0.234591 2.660966 -2.159500
v 0.227550 2.667787 -2.159500
v 0.036652 2.615700 -2.159500
v 0.049032 2.622267 -2.159500
v 0.038157 2.623996 -2.159500
v 0.234591 2.660966 -1.952297
v 0.222727 2.655789 -1.952297
v 0.227550 2.668675 -1.960284
v 0.050511 2.617830 -1.952297
v 0.026298 2.621617 -1.952297
v 0.038157 2.624883 -1.960284
v -0.148393 2.450755 -1.952297
v -0.159306 2.431915 -1.952297
v -0.155768 2.443164 -1.960284
v -0.152768 2.432891 -2.159500
v -0.145435 2.444838 -2.159500
v -0.155768 2.442277 -2.159500
v -0.201127 2.259024 -1.952297
v -0.210758 2.254543 -1.968804
v -0.205355 2.245713 -2.159500
v -0.203346 2.259763 -2.159500
v -0.210758 2.253655 -2.159500
v -0.205355 2.073037 -1.952297
v -0.205355 2.058768 -1.952297
v -0.213391 2.066790 -1.960284
v -0.205355 2.058768 -2.159500
v -0.205355 2.073037 -2.159500
v -0.213391 2.065902 -2.159500
v -0.198965 1.883038 -1.952297
v -0.211745 1.868769 -1.952297
v -0.213391 1.876791 -1.960284
v -0.205355 1.868769 -2.159500
v -0.205355 1.883038 -2.159500
v -0.213391 1.875903 -2.159500
v 0.907428 1.883038 -1.952297
v 0.907428 1.868769 -1.952297
v 0.900256 1.876791 -1.968804
v 0.907428 1.868769 -2.159500
v 0.907428 1.883038 -2.159500
v 0.900256 1.875903 -2.159500
v 0.907428 2.058768 -2.159500
v 0.907347 2.073037 -2.159500
v 0.900216 2.065902 -2.159500
v 0.907347 2.073037 -1.952297
v 0.900216 2.066790 -1.960284
v 0.905013 2.280704 -2.159500
v 0.902772 2.294722 -2.159500
v 0.896619 2.286236 -2.159500
v 0.912535 2.294722 -1.952297
v 0.913001 2.280704 -1.952297
v 0.896619 2.287123 -1.968804
v 0.818458 2.562207 -2.159500
v 0.810990 2.574072 -2.159500
v 0.808693 2.563916 -2.159500
v 0.810990 2.574072 -1.952297
v 0.818458 2.562207 -1.952297
v 0.808694 2.564804 -1.960284
v 0.543023 2.825032 -2.159500
v 0.521839 2.840489 -2.159500
v 0.523757 2.828619 -2.159500
v 0.521839 2.840489 -1.952297
v 0.543023 2.825032 -1.952297
v 0.523757 2.829506 -1.960284
v 0.234591 2.907876 -2.159500
v 0.220509 2.907876 -2.159500
v 0.227961 2.900291 -2.159500
v -0.066740 2.840489 -2.159500
v -0.079090 2.833865 -2.159500
v -0.070198 2.830673 -2.159500
v 0.199800 2.908616 -1.952297
v 0.240508 2.912314 -1.952297
v 0.227961 2.901179 -1.960284
v -0.079090 2.833865 -1.952297
v -0.066740 2.840489 -1.952297
v -0.070198 2.831560 -1.960284
v -0.365577 2.563686 -1.952297
v -0.355151 2.582208 -1.952297
v -0.355135 2.565831 -1.968804
v -0.355891 2.574072 -2.159500
v -0.363358 2.562207 -2.159500
v -0.355135 2.564944 -2.159500
v -0.449914 2.280704 -1.952297
v -0.447672 2.294722 -1.952297
v -0.443060 2.288664 -1.960284
v -0.447672 2.294722 -2.159500
v -0.449914 2.280704 -2.159500
v -0.443060 2.287777 -2.159500
v -0.437418 2.052378 -1.952297
v -0.452248 2.073037 -1.952297
v -0.445116 2.066790 -1.960284
v -0.452248 2.073037 -2.159500
v -0.452328 2.058768 -2.159500
v -0.445116 2.065902 -2.159500
v -0.452328 1.868769 -1.952297
v -0.452328 1.883038 -1.952297
v -0.445156 1.876791 -1.960284
v -0.452328 1.883038 -2.159500
v -0.452328 1.868769 -2.159500
v -0.445156 1.875903 -2.159500
v -0.222334 2.247367 -1.945965
v -0.204499 2.199470 -1.952297
v -0.203557 2.244194 -1.953259
v -0.209458 2.251744 -1.952297
v 0.899789 2.057227 -1.952297
v 0.908969 1.960734 -1.952297
v 0.907428 2.055686 -1.957881
v 0.903458 2.062696 -1.952297
v 0.659630 2.275867 -1.943985
v 0.634006 2.343941 -1.952297
v 0.644292 2.274230 -1.959516
v 0.659805 2.262598 -1.952297
vt 0.591279 0.992727
vt 0.587997 0.930764
vt 0.608105 0.927665
vt 0.615509 0.989937
vt 0.567951 0.847300
vt 0.586735 0.842184
vt 0.603477 0.900503
vt 0.592640 0.903310
vt 0.583014 0.905505
vt 0.783969 0.987198
vt 0.758048 0.986107
vt 0.758743 0.920298
vt 0.793644 0.925734
vt 0.818062 0.932477
vt 0.796042 0.926276
vt 0.803386 0.902605
vt 0.826406 0.910375
vt 0.828298 0.994199
vt 0.808855 0.992738
vt 0.821585 0.933377
vt 0.826225 0.934757
vt 0.839334 0.940309
vt 0.856831 0.944625
vt 0.841704 0.940853
vt 0.846971 0.918755
vt 0.865286 0.924009
vt 0.588338 0.841701
vt 0.617260 0.836497
vt 0.628199 0.894290
vt 0.606576 0.900294
vt 0.618852 0.836160
vt 0.654275 0.835453
vt 0.658805 0.888186
vt 0.632748 0.893372
vt 0.655761 0.835323
vt 0.695111 0.835458
vt 0.699791 0.888199
vt 0.660803 0.888023
vt 0.697585 0.835229
vt 0.735661 0.833236
vt 0.728685 0.887407
vt 0.702689 0.887840
vt 0.737439 0.833426
vt 0.773065 0.836886
vt 0.763378 0.892271
vt 0.733512 0.887935
vt 0.817090 0.846079
vt 0.799892 0.901378
vt 0.765526 0.892781
vt 0.774611 0.837147
vt 0.850501 0.864328
vt 0.818477 0.846472
vt 0.871892 0.877020
vt 0.845202 0.917231
vt 0.828184 0.911148
vt 0.851701 0.864950
vt 0.886020 0.885146
vt 0.873207 0.877886
vt 0.881162 0.931378
vt 0.866943 0.924794
vt 0.887115 0.885720
vt 0.902448 0.894246
vt 0.564378 0.933273
vt 0.585148 0.931137
vt 0.589459 0.992839
vt 0.564896 0.993321
vt 0.617705 0.989675
vt 0.610069 0.927329
vt 0.632762 0.922806
vt 0.642004 0.988168
vt 0.643664 0.987944
vt 0.637401 0.923609
vt 0.646936 0.921051
vt 0.660772 0.918010
vt 0.664192 0.988084
vt 0.698800 0.915878
vt 0.664099 0.917784
vt 0.729375 0.919108
vt 0.703574 0.916474
vt 0.730303 0.986281
vt 0.732270 0.919856
vt 0.755281 0.921121
vt 0.756070 0.986110
vt 0.807348 0.992447
vt 0.785901 0.987512
vt 0.874681 0.949325
vt 0.869398 0.997339
vt 0.852532 0.995482
vt 0.859218 0.944100
vt 0.560974 0.909236
vt 0.543606 0.854754
vt 0.566366 0.847699
vt 0.580492 0.906035
vt 0.850975 0.995285
vt 0.829901 0.994528
vt 0.702234 0.988048
vt 0.728535 0.986253
vt 0.666155 0.988013
vt 0.700037 0.988054
vt 0.590369 0.992780
vt 0.586644 0.930928
vt 0.616606 0.989804
vt 0.609210 0.928225
vt 0.636762 0.921266
vt 0.633878 0.922903
vt 0.642834 0.988054
vt 0.665189 0.988044
vt 0.662532 0.917907
vt 0.701117 0.988045
vt 0.700977 0.916975
vt 0.729419 0.986263
vt 0.730661 0.919127
vt 0.757169 0.986105
vt 0.757191 0.920847
vt 0.784972 0.987358
vt 0.794715 0.926337
vt 0.821556 0.931819
vt 0.819457 0.933997
vt 0.808102 0.992590
vt 0.829101 0.994361
vt 0.840524 0.940589
vt 0.851754 0.995381
vt 0.858308 0.944326
vt 0.567159 0.847502
vt 0.581593 0.904813
vt 0.603885 0.901477
vt 0.605316 0.900462
vt 0.587540 0.841944
vt 0.618041 0.836335
vt 0.630545 0.893672
vt 0.655000 0.835391
vt 0.659822 0.888029
vt 0.696640 0.835321
vt 0.701679 0.888006
vt 0.736526 0.833330
vt 0.730700 0.887810
vt 0.773875 0.837024
vt 0.764439 0.892356
vt 0.817802 0.846282
vt 0.802217 0.901215
vt 0.851066 0.864622
vt 0.827201 0.910517
vt 0.872547 0.877453
vt 0.845983 0.917527
vt 0.886566 0.885435
vt 0.865998 0.924291
vt 0.604112 0.900925
vt 0.635536 0.922304
vt 0.821168 0.932982
vn -0.9990 0.0333 0.0282
vn 1.0000 -0.0001 -0.0037
vn 0.6911 -0.7215 0.0428
vn -0.0000 0.0000 1.0000
vn 1.0000 -0.0052 -0.0032
vn 0.9998 -0.0080 -0.0193
vn 0.9484 0.3163 -0.0223
vn 0.6836 0.7299 0.0000
vn 0.2378 0.9712 -0.0138
vn -0.2377 0.9713 -0.0136
vn -0.6790 0.7340 -0.0132
vn -0.9551 0.2963 -0.0062
vn -0.9999 0.0112 0.0000
vn -0.9984 0.0431 0.0366
vn -1.0000 0.0000 0.0000
vn -0.9993 -0.0277 0.0231
vn -0.9673 -0.2534 -0.0115
vn 0.2176 -0.9757 -0.0246
vn 0.9661 -0.2580 0.0090
vn 0.9997 0.0178 0.0154
vn 1.0000 0.0000 -0.0000
vn 0.9997 0.0182 -0.0154
vn -0.2321 -0.9726 -0.0104
vn -0.6843 -0.7292 -0.0000
vn -0.6393 -0.7689 0.0017
vn -0.6865 0.7271 -0.0016
vn -0.8944 -0.4468 0.0221
vn -0.9569 0.2893 0.0269
vn 0.0037 0.0211 0.9998
vn -0.9096 0.4155 -0.0009
vn -0.1408 -0.9900 0.0022
vn -0.9719 0.2355 -0.0005
vn 0.5625 -0.8268 -0.0074
vn -0.9920 -0.1261 0.0003
vn 0.8549 -0.5187 -0.0101
vn -0.7185 -0.6955 0.0015
vn 0.6640 -0.7472 0.0294
vn -0.3515 -0.9361 -0.0069
vn 0.9997 -0.0199 0.0161
vn 0.4911 -0.8709 0.0182
vn -0.0055 -0.0168 0.9998
vn 0.5295 -0.8483 -0.0026
vn 0.6865 0.7271 -0.0016
vn 0.6393 -0.7689 0.0017
vn 0.8398 0.5428 0.0120
vn 0.5134 -0.8581 -0.0062
vn 0.7271 0.6865 -0.0015
vn 0.6811 -0.7321 0.0016
vn 0.6837 -0.7297 0.0016
vn 0.4403 0.8978 -0.0108
vn 0.5952 -0.8035 -0.0128
vn 0.2162 0.9764 -0.0021
vn 0.9731 -0.2303 0.0005
vn 0.2052 0.9787 -0.0021
vn 0.9862 0.1656 -0.0004
vn -0.6987 0.7154 0.0008
vn 0.3917 0.9200 0.0163
vn -0.9381 0.3465 -0.0008
vn 0.2945 0.9557 -0.0021
vn -0.9995 -0.0319 0.0026
vn -0.2590 0.9659 -0.0072
vn -0.8153 -0.5791 0.0013
vn -0.7393 0.6733 -0.0015
vn -0.6837 -0.7297 0.0016
vn -0.9993 -0.0090 0.0365
vn -0.6817 -0.7317 0.0016
vn -0.7267 0.6869 -0.0015
vn 0.0098 0.8363 0.5481
vn 0.0081 -0.8907 0.4546
vn 0.7854 0.6189 0.0020
vn 0.0000 -0.7877 0.6161
vn -0.1052 0.8228 0.5585
vn -0.7154 -0.6986 0.0118
vn -0.3766 0.6152 0.6926
vn 0.4087 -0.6677 0.6222
vn -0.6012 0.3234 0.7308
vn 0.7957 -0.4262 0.4303
vn -0.6329 0.0083 0.7742
vn 0.4331 0.0201 0.9011
vn -0.6480 -0.3405 0.6813
vn 0.5747 0.2932 0.7641
vn -0.3886 -0.5975 0.7014
vn 0.4131 0.6789 0.6070
vn -0.1242 -0.9020 0.4135
vn 0.8234 0.5675 -0.0013
vn -0.0079 0.5763 0.8172
vn 0.0000 0.7056 0.7086
vn 0.3639 0.0124 0.9314
vn 0.1186 0.8632 0.4907
vn 0.5941 0.0321 0.8038
vn -0.0057 0.6726 0.7400
vn -0.6913 -0.1746 0.7011
vn 0.1061 -0.7594 0.6419
vn -0.6227 -0.4213 0.6593
vn 0.3828 0.1838 0.9054
usemtl fireplace_lp
s off
f 12/1/1 10/2/1 18/3/1 16/4/1
f 77/5/2 79/6/2 144/7/2 143/8/2 73/9/2
f 54/10/3 41/11/3 48/12/3 50/13/3
f 56/14/4 51/15/4 114/16/4 121/17/4
f 65/18/5 58/19/5 140/20/5 139/21/5 61/22/5
f 67/23/4 62/24/4 126/25/4 133/26/4
f 80/27/6 84/28/6 88/29/6 82/30/6
f 85/31/7 90/32/7 94/33/7 87/34/7
f 91/35/8 96/36/8 100/37/8 93/38/8
f 97/39/9 102/40/9 109/41/9 99/42/9
f 103/43/10 105/44/10 112/45/10 108/46/10
f 117/47/11 115/48/11 111/49/11 106/50/11
f 123/51/12 121/17/12 114/16/12 118/52/12
f 129/53/13 127/54/13 120/55/13 124/56/13
f 135/57/14 133/26/14 126/25/14 130/58/14
f 7/59/15 132/60/15 136/61/15 8/62/15
f 1/63/15 9/64/15 13/65/15 2/66/15
f 15/67/16 19/68/16 24/69/16 22/70/16
f 24/69/4 19/68/4 82/30/4 88/29/4
f 21/71/17 148/72/17 147/73/17 29/74/17 27/75/17
f 35/76/4 30/77/4 93/38/4 100/37/4
f 44/78/4 36/79/4 99/42/4 109/41/4
f 38/80/18 45/81/18 47/82/18 42/83/18
f 50/13/4 48/12/4 111/49/4 115/48/4
f 59/84/19 53/85/19 51/15/19 56/14/19
f 3/86/20 4/87/20 70/88/20 68/89/20
f 5/90/21 6/91/21 76/92/21 74/93/21
f 3/86/4 68/89/4 132/60/4 7/59/4
f 71/94/22 64/95/22 62/24/22 67/23/22
f 47/82/4 45/81/4 108/46/4 112/45/4
f 32/96/23 36/79/23 44/78/23 39/97/23
f 26/98/24 30/77/24 35/76/24 33/99/24
f 10/2/25 12/1/25 14/100/25 11/101/25
f 11/101/26 14/100/26 13/65/26 9/64/26
f 19/68/27 15/67/27 17/102/27 20/103/27
f 20/103/28 17/102/28 16/4/28 18/3/28
f 29/74/29 147/73/29 146/104/29 87/34/29 94/33/29
f 25/105/30 23/106/30 22/70/30 24/69/30
f 30/77/31 26/98/31 28/107/31 31/108/31
f 31/108/32 28/107/32 27/75/32 29/74/32
f 36/79/33 32/96/33 34/109/33 37/110/33
f 37/110/34 34/109/34 33/99/34 35/76/34
f 45/81/35 38/80/35 40/111/35 46/112/35
f 46/112/36 40/111/36 39/97/36 44/78/36
f 48/12/37 41/11/37 43/113/37 49/114/37
f 49/114/38 43/113/38 42/83/38 47/82/38
f 51/15/39 53/85/39 55/115/39 52/116/39
f 52/116/40 55/115/40 54/10/40 50/13/40
f 61/22/41 139/21/41 138/117/41 120/55/41 127/54/41
f 57/118/42 60/119/42 59/84/42 56/14/42
f 62/24/43 64/95/43 66/120/43 63/121/43
f 63/121/44 66/120/44 65/18/44 61/22/44
f 68/89/45 70/88/45 72/122/45 69/123/45
f 69/123/46 72/122/46 71/94/46 67/23/46
f 74/93/47 76/92/47 78/124/47 75/125/47
f 75/125/48 78/124/48 77/5/48 73/9/48
f 18/3/4 10/2/4 73/9/4 143/8/4 142/126/4
f 83/127/49 81/128/49 80/27/49 82/30/49
f 88/29/50 84/28/50 86/129/50 89/130/50
f 89/130/51 86/129/51 85/31/51 87/34/51
f 94/33/52 90/32/52 92/131/52 95/132/52
f 95/132/53 92/131/53 91/35/53 93/38/53
f 100/37/54 96/36/54 98/133/54 101/134/54
f 101/134/55 98/133/55 97/39/55 99/42/55
f 109/41/56 102/40/56 104/135/56 110/136/56
f 110/136/57 104/135/57 103/43/57 108/46/57
f 112/45/58 105/44/58 107/137/58 113/138/58
f 113/138/59 107/137/59 106/50/59 111/49/59
f 115/48/60 117/47/60 119/139/60 116/140/60
f 116/140/61 119/139/61 118/52/61 114/16/61
f 121/17/62 123/51/62 125/141/62 122/142/62
f 122/142/63 125/141/63 124/56/63 120/55/63
f 127/54/64 129/53/64 131/143/64 128/144/64
f 128/144/65 131/143/65 130/58/65 126/25/65
f 133/26/66 135/57/66 137/145/66 134/146/66
f 134/146/67 137/145/67 136/61/67 132/60/67
f 9/64/68 74/93/68 75/125/68 11/101/68
f 11/101/69 75/125/69 73/9/69 10/2/69
f 145/147/70 144/7/70 79/6/70 81/128/70 83/127/70
f 20/103/71 83/127/71 82/30/71 19/68/71
f 24/69/72 88/29/72 89/130/72 25/105/72
f 149/148/73 148/72/73 21/71/73 23/106/73 25/105/73
f 29/74/74 94/33/74 95/132/74 31/108/74
f 31/108/75 95/132/75 93/38/75 30/77/75
f 35/76/76 100/37/76 101/134/76 37/110/76
f 37/110/77 101/134/77 99/42/77 36/79/77
f 44/78/78 109/41/78 110/136/78 46/112/78
f 46/112/79 110/136/79 108/46/79 45/81/79
f 47/82/80 112/45/80 113/138/80 49/114/80
f 49/114/81 113/138/81 111/49/81 48/12/81
f 50/13/82 115/48/82 116/140/82 52/116/82
f 52/116/83 116/140/83 114/16/83 51/15/83
f 56/14/84 121/17/84 122/142/84 57/118/84
f 141/149/85 140/20/85 58/19/85 60/119/85 57/118/85
f 61/22/71 127/54/71 128/144/71 63/121/71
f 63/121/86 128/144/86 126/25/86 62/24/86
f 67/23/71 133/26/71 134/146/71 69/123/71
f 69/123/87 134/146/87 132/60/87 68/89/87
f 9/64/4 1/63/4 5/90/4 74/93/4
f 138/117/88 139/21/88 140/20/88
f 57/118/89 122/142/89 120/55/89 138/117/89 141/149/89
f 142/126/90 143/8/90 144/7/90 145/147/90
f 18/3/91 142/126/91 145/147/91 83/127/91 20/103/91
f 146/104/92 147/73/92 148/72/92
f 25/105/93 89/130/93 87/34/93 146/104/93 149/148/93
f 148/72/94 149/148/94 146/104/94
f 140/20/95 141/149/95 138/117/95
