# Blender v3.1.2 OBJ File: 'room(window).blend'
# www.blender.org
mtllib windowsill.mtl
o windowsill_Cube.032
v -0.459564 1.627459 -1.787127
v -0.459564 1.636846 -1.777740
v -0.468951 1.636846 -1.787127
v -0.459564 1.677948 -1.777740
v -0.459564 1.687335 -1.787127
v -0.468951 1.677948 -1.787127
v -0.459564 1.627459 -2.159483
v -0.468951 1.636846 -2.159483
v -0.459564 1.636846 -2.168870
v -0.459564 1.687335 -2.159483
v -0.459564 1.677948 -2.168870
v -0.468951 1.677948 -2.159483
v 0.917208 1.627459 -1.787127
v 0.926595 1.636846 -1.787127
v 0.917208 1.636846 -1.777740
v 0.917208 1.687335 -1.787127
v 0.917208 1.677948 -1.777740
v 0.926595 1.677948 -1.787127
v 0.917208 1.627459 -2.159483
v 0.917208 1.636846 -2.168870
v 0.926595 1.636846 -2.159483
v 0.917208 1.687335 -2.159483
v 0.926595 1.677948 -2.159483
v 0.917208 1.677948 -2.168870
vt 0.224958 0.487656
vt 0.216302 0.487810
vt 0.212427 0.254313
vt 0.221083 0.254159
vt 0.149160 0.498912
vt 0.149041 0.491903
vt 0.212541 0.490826
vt 0.212660 0.497835
vt 0.149003 0.489639
vt 0.145021 0.254852
vt 0.208520 0.253775
vt 0.212503 0.488562
vt 0.208363 0.244501
vt 0.208482 0.251511
vt 0.144982 0.252588
vt 0.144864 0.245578
vt 0.132566 0.255757
vt 0.141222 0.255604
vt 0.145096 0.489100
vt 0.136440 0.489254
vt 0.224882 0.253407
vt 0.221778 0.250583
vt 0.211603 0.250961
vt 0.128659 0.255219
vt 0.131741 0.252406
vt 0.141917 0.252027
vt 0.228864 0.488194
vt 0.225782 0.491008
vt 0.215606 0.491386
vt 0.132641 0.490006
vt 0.135745 0.492831
vt 0.145920 0.492452
vt 0.144825 0.243314
vt 0.208325 0.242237
vt 0.212698 0.500099
vt 0.149199 0.501176
vt 0.140843 0.008527
vt 0.204343 0.007450
vn 0.0000 0.0000 1.0000
vn 1.0000 0.0000 0.0000
vn 0.0000 1.0000 0.0000
vn -1.0000 0.0000 0.0000
vn 0.0000 0.0000 -1.0000
vn -0.5774 -0.5774 0.5774
vn -0.5774 0.5774 0.5774
vn -0.5774 -0.5773 -0.5773
vn -0.5774 0.5774 -0.5774
vn 0.5773 -0.5774 0.5774
vn 0.5773 0.5774 0.5773
vn 0.5774 -0.5773 -0.5774
vn 0.5773 0.5774 -0.5773
vn -0.7071 -0.7071 0.0000
vn -0.7071 0.0000 0.7071
vn -0.7071 0.7071 0.0000
vn -0.7071 0.0000 -0.7071
vn 0.0000 -0.7071 -0.7071
vn 0.0000 0.7071 -0.7071
vn 0.7071 0.0000 -0.7071
vn 0.7071 -0.7071 0.0000
vn 0.7071 0.7071 0.0000
vn 0.7071 0.0000 0.7071
vn 0.0000 -0.7071 0.7071
vn 0.0000 0.7071 0.7071
vn 0.0000 -1.0000 0.0000
usemtl stairs_lp
s off
f 15/1/1 17/2/1 4/3/1 2/4/1
f 21/5/2 23/6/2 18/7/2 14/8/2
f 22/9/3 10/10/3 5/11/3 16/12/3
f 3/13/4 6/14/4 12/15/4 8/16/4
f 9/17/5 11/18/5 24/19/5 20/20/5
f 1/21/6 2/4/6 3/22/6
f 4/3/7 5/11/7 6/23/7
f 7/24/8 8/25/8 9/17/8
f 10/10/9 11/18/9 12/26/9
f 13/27/10 14/28/10 15/1/10
f 16/12/11 17/2/11 18/29/11
f 19/30/12 20/20/12 21/31/12
f 22/9/13 23/32/13 24/19/13
f 7/33/14 1/34/14 3/13/14 8/16/14
f 2/4/15 4/3/15 6/23/15 3/22/15
f 5/11/16 10/10/16 12/15/16 6/14/16
f 11/18/17 9/17/17 8/25/17 12/26/17
f 19/30/18 7/24/18 9/17/18 20/20/18
f 10/10/19 22/9/19 24/19/19 11/18/19
f 23/32/20 21/31/20 20/20/20 24/19/20
f 13/35/21 19/36/21 21/5/21 14/8/21
f 22/9/22 16/12/22 18/7/22 23/6/22
f 17/2/23 15/1/23 14/28/23 18/29/23
f 1/21/24 13/27/24 15/1/24 2/4/24
f 16/12/25 5/11/25 4/3/25 17/2/25
f 7/33/26 19/37/26 13/38/26 1/34/26
