# Blender v3.1.2 OBJ File: 'room(window).blend'
# www.blender.org
mtllib trapdoor.mtl
o trapdoor_Cube.033
v -1.678255 3.477959 -1.037732
v -1.682392 3.482919 -1.037732
v -1.678255 3.482919 -1.042692
v -1.682392 3.504633 -1.037732
v -1.678255 3.509593 -1.037732
v -1.678255 3.504633 -1.042692
v -1.514166 3.477959 -1.037732
v -1.514166 3.482919 -1.042692
v -1.510029 3.482919 -1.037732
v -1.514166 3.509593 -1.037732
v -1.510029 3.504633 -1.037732
v -1.514166 3.504633 -1.042692
v -1.678255 3.477959 -0.310358
v -1.678255 3.482919 -0.305398
v -1.682392 3.482919 -0.310358
v -1.678255 3.509593 -0.310358
v -1.682392 3.504633 -0.310358
v -1.678255 3.504633 -0.305398
v -1.514166 3.477959 -0.310358
v -1.510029 3.482919 -0.310358
v -1.514166 3.482919 -0.305398
v -1.514166 3.509593 -0.310358
v -1.514166 3.504633 -0.305398
v -1.510029 3.504633 -0.310358
v -1.502445 3.477959 -1.037732
v -1.506582 3.482919 -1.037732
v -1.502445 3.482919 -1.042692
v -1.506582 3.504633 -1.037732
v -1.502445 3.509593 -1.037732
v -1.502445 3.504633 -1.042692
v -1.338356 3.477959 -1.037732
v -1.338356 3.482919 -1.042692
v -1.334219 3.482919 -1.037732
v -1.338356 3.509593 -1.037732
v -1.334219 3.504633 -1.037732
v -1.338356 3.504633 -1.042692
v -1.502445 3.477959 -0.310358
v -1.502445 3.482919 -0.305398
v -1.506582 3.482919 -0.310358
v -1.502445 3.509593 -0.310358
v -1.506582 3.504633 -0.310358
v -1.502445 3.504633 -0.305398
v -1.338356 3.477959 -0.310358
v -1.334219 3.482919 -0.310358
v -1.338356 3.482919 -0.305398
v -1.338356 3.509593 -0.310358
v -1.338356 3.504633 -0.305398
v -1.334219 3.504633 -0.310358
v -1.326635 3.477959 -1.037732
v -1.330772 3.482919 -1.037732
v -1.326635 3.482919 -1.042692
v -1.330772 3.504633 -1.037732
v -1.326635 3.509593 -1.037732
v -1.326635 3.504633 -1.042692
v -1.162546 3.477959 -1.037732
v -1.162546 3.482919 -1.042692
v -1.158410 3.482919 -1.037732
v -1.162546 3.509593 -1.037732
v -1.158410 3.504633 -1.037732
v -1.162546 3.504633 -1.042692
v -1.326635 3.477959 -0.310358
v -1.326635 3.482919 -0.305398
v -1.330772 3.482919 -0.310358
v -1.326635 3.509593 -0.310358
v -1.330772 3.504633 -0.310358
v -1.326635 3.504633 -0.305398
v -1.162546 3.477959 -0.310358
v -1.158410 3.482919 -0.310358
v -1.162546 3.482919 -0.305398
v -1.162546 3.509593 -0.310358
v -1.162546 3.504633 -0.305398
v -1.158410 3.504633 -0.310358
v -1.150826 3.477959 -1.037732
v -1.154962 3.482919 -1.037732
v -1.150826 3.482919 -1.042692
v -1.154962 3.504633 -1.037732
v -1.150826 3.509593 -1.037732
v -1.150826 3.504633 -1.042692
v -0.986737 3.477959 -1.037732
v -0.986737 3.482919 -1.042692
v -0.982600 3.482919 -1.037732
v -0.986737 3.509593 -1.037732
v -0.982600 3.504633 -1.037732
v -0.986737 3.504633 -1.042692
v -1.150826 3.477959 -0.310358
v -1.150826 3.482919 -0.305398
v -1.154962 3.482919 -0.310358
v -1.150826 3.509593 -0.310358
v -1.154962 3.504633 -0.310358
v -1.150826 3.504633 -0.305398
v -0.986737 3.477959 -0.310358
v -0.982600 3.482919 -0.310358
v -0.986737 3.482919 -0.305398
v -0.986737 3.509593 -0.310358
v -0.986737 3.504633 -0.305398
v -0.982600 3.504633 -0.310358
vt 0.224958 0.487656
vt 0.216302 0.487810
vt 0.212427 0.254313
vt 0.221083 0.254159
vt 0.149160 0.498912
vt 0.149041 0.491903
vt 0.212541 0.490826
vt 0.212660 0.497835
vt 0.149003 0.489639
vt 0.145021 0.254852
vt 0.208520 0.253775
vt 0.212503 0.488562
vt 0.208363 0.244501
vt 0.208482 0.251511
vt 0.144982 0.252588
vt 0.144864 0.245578
vt 0.132566 0.255757
vt 0.141222 0.255604
vt 0.145096 0.489100
vt 0.136440 0.489254
vt 0.224882 0.253407
vt 0.221778 0.250583
vt 0.211603 0.250961
vt 0.128659 0.255219
vt 0.131741 0.252406
vt 0.141917 0.252027
vt 0.228864 0.488194
vt 0.225782 0.491008
vt 0.215606 0.491386
vt 0.132641 0.490006
vt 0.135745 0.492831
vt 0.145920 0.492452
vt 0.144825 0.243314
vt 0.208325 0.242237
vt 0.212698 0.500099
vt 0.149199 0.501176
vt 0.140843 0.008527
vt 0.204343 0.007450
vt 0.224958 0.487656
vt 0.216302 0.487810
vt 0.212427 0.254313
vt 0.221083 0.254159
vt 0.149160 0.498912
vt 0.149041 0.491903
vt 0.212541 0.490826
vt 0.212660 0.497835
vt 0.149003 0.489639
vt 0.145021 0.254852
vt 0.208520 0.253775
vt 0.212503 0.488562
vt 0.208363 0.244501
vt 0.208482 0.251511
vt 0.144982 0.252588
vt 0.144864 0.245578
vt 0.132566 0.255757
vt 0.141222 0.255604
vt 0.145096 0.489100
vt 0.136440 0.489254
vt 0.224882 0.253407
vt 0.221778 0.250583
vt 0.211603 0.250961
vt 0.128659 0.255219
vt 0.131741 0.252406
vt 0.141917 0.252027
vt 0.228864 0.488194
vt 0.225782 0.491008
vt 0.215606 0.491386
vt 0.132641 0.490006
vt 0.135745 0.492831
vt 0.145920 0.492452
vt 0.144825 0.243314
vt 0.208325 0.242237
vt 0.212698 0.500099
vt 0.149199 0.501176
vt 0.140843 0.008527
vt 0.204343 0.007450
vt 0.224958 0.487656
vt 0.216302 0.487810
vt 0.212427 0.254313
vt 0.221083 0.254159
vt 0.149160 0.498912
vt 0.149041 0.491903
vt 0.212541 0.490826
vt 0.212660 0.497835
vt 0.149003 0.489639
vt 0.145021 0.254852
vt 0.208520 0.253775
vt 0.212503 0.488562
vt 0.208363 0.244501
vt 0.208482 0.251511
vt 0.144982 0.252588
vt 0.144864 0.245578
vt 0.132566 0.255757
vt 0.141222 0.255604
vt 0.145096 0.489100
vt 0.136440 0.489254
vt 0.224882 0.253407
vt 0.221778 0.250583
vt 0.211603 0.250961
vt 0.128659 0.255219
vt 0.131741 0.252406
vt 0.141917 0.252027
vt 0.228864 0.488194
vt 0.225782 0.491008
vt 0.215606 0.491386
vt 0.132641 0.490006
vt 0.135745 0.492831
vt 0.145920 0.492452
vt 0.144825 0.243314
vt 0.208325 0.242237
vt 0.212698 0.500099
vt 0.149199 0.501176
vt 0.140843 0.008527
vt 0.204343 0.007450
vt 0.224958 0.487656
vt 0.216302 0.487810
vt 0.212427 0.254313
vt 0.221083 0.254159
vt 0.149160 0.498912
vt 0.149041 0.491903
vt 0.212541 0.490826
vt 0.212660 0.497835
vt 0.149003 0.489639
vt 0.145021 0.254852
vt 0.208520 0.253775
vt 0.212503 0.488562
vt 0.208363 0.244501
vt 0.208482 0.251511
vt 0.144982 0.252588
vt 0.144864 0.245578
vt 0.132566 0.255757
vt 0.141222 0.255604
vt 0.145096 0.489100
vt 0.136440 0.489254
vt 0.224882 0.253407
vt 0.221778 0.250583
vt 0.211603 0.250961
vt 0.128659 0.255219
vt 0.131741 0.252406
vt 0.141917 0.252027
vt 0.228864 0.488194
vt 0.225782 0.491008
vt 0.215606 0.491386
vt 0.132641 0.490006
vt 0.135745 0.492831
vt 0.145920 0.492452
vt 0.144825 0.243314
vt 0.208325 0.242237
vt 0.212698 0.500099
vt 0.149199 0.501176
vt 0.140843 0.008527
vt 0.204343 0.007450
vn -1.0000 0.0000 0.0000
vn -0.0000 0.0000 1.0000
vn 0.0000 1.0000 0.0000
vn 0.0000 0.0000 -1.0000
vn 1.0000 0.0000 0.0000
vn -0.6466 -0.5394 -0.5394
vn -0.6466 0.5394 -0.5394
vn 0.6466 -0.5394 -0.5394
vn 0.6466 0.5394 -0.5394
vn -0.6466 -0.5394 0.5394
vn -0.6466 0.5394 0.5394
vn 0.6466 -0.5394 0.5394
vn 0.6466 0.5394 0.5394
vn 0.0000 -0.7071 -0.7071
vn -0.7679 0.0000 -0.6406
vn 0.0000 0.7071 -0.7071
vn 0.7679 0.0000 -0.6405
vn 0.7679 -0.6405 0.0000
vn 0.7679 0.6405 0.0000
vn 0.7679 0.0000 0.6405
vn -0.0000 -0.7071 0.7071
vn -0.0000 0.7071 0.7071
vn -0.7679 0.0000 0.6406
vn -0.7679 -0.6406 0.0000
vn -0.7679 0.6406 0.0000
vn 0.0000 -1.0000 0.0000
vn -0.7679 0.0000 -0.6405
vn 0.7679 0.0000 -0.6406
vn 0.7679 0.0000 0.6406
vn -0.7679 0.0000 0.6405
vn -0.7679 -0.6405 0.0000
vn -0.7679 0.6405 0.0000
vn -0.6467 -0.5394 0.5394
vn -0.6467 0.5394 0.5394
usemtl stairs_lp
s off
f 15/1/1 17/2/1 4/3/1 2/4/1
f 21/5/2 23/6/2 18/7/2 14/8/2
f 22/9/3 10/10/3 5/11/3 16/12/3
f 3/13/4 6/14/4 12/15/4 8/16/4
f 9/17/5 11/18/5 24/19/5 20/20/5
f 1/21/6 2/4/6 3/22/6
f 4/3/7 5/11/7 6/23/7
f 7/24/8 8/25/8 9/17/8
f 10/10/9 11/18/9 12/26/9
f 13/27/10 14/28/10 15/1/10
f 16/12/11 17/2/11 18/29/11
f 19/30/12 20/20/12 21/31/12
f 22/9/13 23/32/13 24/19/13
f 7/33/14 1/34/14 3/13/14 8/16/14
f 2/4/15 4/3/15 6/23/15 3/22/15
f 5/11/16 10/10/16 12/15/16 6/14/16
f 11/18/17 9/17/17 8/25/17 12/26/17
f 19/30/18 7/24/18 9/17/18 20/20/18
f 10/10/19 22/9/19 24/19/19 11/18/19
f 23/32/20 21/31/20 20/20/20 24/19/20
f 13/35/21 19/36/21 21/5/21 14/8/21
f 22/9/22 16/12/22 18/7/22 23/6/22
f 17/2/23 15/1/23 14/28/23 18/29/23
f 1/21/24 13/27/24 15/1/24 2/4/24
f 16/12/25 5/11/25 4/3/25 17/2/25
f 7/33/26 19/37/26 13/38/26 1/34/26
f 39/39/1 41/40/1 28/41/1 26/42/1
f 45/43/2 47/44/2 42/45/2 38/46/2
f 46/47/3 34/48/3 29/49/3 40/50/3
f 27/51/4 30/52/4 36/53/4 32/54/4
f 33/55/5 35/56/5 48/57/5 44/58/5
f 25/59/6 26/42/6 27/60/6
f 28/41/7 29/49/7 30/61/7
f 31/62/8 32/63/8 33/55/8
f 34/48/9 35/56/9 36/64/9
f 37/65/10 38/66/10 39/39/10
f 40/50/11 41/40/11 42/67/11
f 43/68/12 44/58/12 45/69/12
f 46/47/13 47/70/13 48/57/13
f 31/71/14 25/72/14 27/51/14 32/54/14
f 26/42/27 28/41/27 30/61/27 27/60/27
f 29/49/16 34/48/16 36/53/16 30/52/16
f 35/56/28 33/55/28 32/63/28 36/64/28
f 43/68/18 31/62/18 33/55/18 44/58/18
f 34/48/19 46/47/19 48/57/19 35/56/19
f 47/70/29 45/69/29 44/58/29 48/57/29
f 37/73/21 43/74/21 45/43/21 38/46/21
f 46/47/22 40/50/22 42/45/22 47/44/22
f 41/40/30 39/39/30 38/66/30 42/67/30
f 25/59/31 37/65/31 39/39/31 26/42/31
f 40/50/32 29/49/32 28/41/32 41/40/32
f 31/71/26 43/75/26 37/76/26 25/72/26
f 63/77/1 65/78/1 52/79/1 50/80/1
f 69/81/2 71/82/2 66/83/2 62/84/2
f 70/85/3 58/86/3 53/87/3 64/88/3
f 51/89/4 54/90/4 60/91/4 56/92/4
f 57/93/5 59/94/5 72/95/5 68/96/5
f 49/97/6 50/80/6 51/98/6
f 52/79/7 53/87/7 54/99/7
f 55/100/8 56/101/8 57/93/8
f 58/86/9 59/94/9 60/102/9
f 61/103/10 62/104/10 63/77/10
f 64/88/11 65/78/11 66/105/11
f 67/106/12 68/96/12 69/107/12
f 70/85/13 71/108/13 72/95/13
f 55/109/14 49/110/14 51/89/14 56/92/14
f 50/80/15 52/79/15 54/99/15 51/98/15
f 53/87/16 58/86/16 60/91/16 54/90/16
f 59/94/17 57/93/17 56/101/17 60/102/17
f 67/106/18 55/100/18 57/93/18 68/96/18
f 58/86/19 70/85/19 72/95/19 59/94/19
f 71/108/20 69/107/20 68/96/20 72/95/20
f 61/111/21 67/112/21 69/81/21 62/84/21
f 70/85/22 64/88/22 66/83/22 71/82/22
f 65/78/23 63/77/23 62/104/23 66/105/23
f 49/97/24 61/103/24 63/77/24 50/80/24
f 64/88/25 53/87/25 52/79/25 65/78/25
f 55/109/26 67/113/26 61/114/26 49/110/26
f 87/115/1 89/116/1 76/117/1 74/118/1
f 93/119/2 95/120/2 90/121/2 86/122/2
f 94/123/3 82/124/3 77/125/3 88/126/3
f 75/127/4 78/128/4 84/129/4 80/130/4
f 81/131/5 83/132/5 96/133/5 92/134/5
f 73/135/6 74/118/6 75/136/6
f 76/117/7 77/125/7 78/137/7
f 79/138/8 80/139/8 81/131/8
f 82/124/9 83/132/9 84/140/9
f 85/141/33 86/142/33 87/115/33
f 88/126/34 89/116/34 90/143/34
f 91/144/12 92/134/12 93/145/12
f 94/123/13 95/146/13 96/133/13
f 79/147/14 73/148/14 75/127/14 80/130/14
f 74/118/27 76/117/27 78/137/27 75/136/27
f 77/125/16 82/124/16 84/129/16 78/128/16
f 83/132/28 81/131/28 80/139/28 84/140/28
f 91/144/18 79/138/18 81/131/18 92/134/18
f 82/124/19 94/123/19 96/133/19 83/132/19
f 95/146/20 93/145/20 92/134/20 96/133/20
f 85/149/21 91/150/21 93/119/21 86/122/21
f 94/123/22 88/126/22 90/121/22 95/120/22
f 89/116/30 87/115/30 86/142/30 90/143/30
f 73/135/31 85/141/31 87/115/31 74/118/31
f 88/126/32 77/125/32 76/117/32 89/116/32
f 79/147/26 91/151/26 85/152/26 73/148/26
