# Blender v3.1.2 OBJ File: 'room(export_by_ones).blend'
# www.blender.org
mtllib cupboard.mtl
o cupboard_Cube.043
v -2.323160 0.003090 1.755383
v -2.323160 2.003089 1.755383
v -2.323160 0.003090 0.555383
v -2.323160 2.003089 0.555383
v -1.823160 0.003090 1.755383
v -1.823160 2.003089 1.755383
v -1.823160 0.003090 0.555383
v -1.823160 2.003089 0.555383
v -2.323160 0.087780 1.755383
v -2.323160 0.087780 0.555383
v -1.823160 0.087780 0.555383
v -1.823160 0.087780 1.755383
v -2.323160 1.928171 1.755383
v -2.323160 1.928171 0.555383
v -1.823160 1.928171 0.555383
v -1.823160 1.928171 1.755383
v -2.323160 2.003089 1.686561
v -2.323160 2.003089 0.624204
v -1.823160 0.003090 1.686561
v -1.823160 0.003090 0.624204
v -1.823160 2.003089 0.624204
v -1.823160 2.003089 1.686561
v -1.823160 0.087780 0.624204
v -1.823160 0.087780 1.686561
v -1.823160 1.928171 0.624204
v -1.823160 1.928171 1.686561
v -2.323160 1.320777 0.568541
v -2.323160 0.530974 0.566661
v -1.823160 1.320777 0.568541
v -1.823160 0.530974 0.566661
v -1.823160 1.320777 1.749743
v -1.823160 0.670078 1.755383
v -2.323160 0.670078 1.755383
v -2.323160 1.320777 1.749743
v -1.823160 1.320777 0.624204
v -1.823160 0.668198 0.614805
v -1.823160 1.320777 1.686561
v -1.823160 0.670078 1.686561
v -2.323160 1.370637 1.749743
v -2.323160 1.381916 0.568541
v -1.823160 1.381916 0.568541
v -1.823160 1.370637 1.749743
v -1.823160 1.364371 0.624204
v -1.823160 1.370637 1.686561
v -2.323160 0.722977 0.561022
v -1.823160 0.722977 0.561022
v -1.823160 0.721097 1.753503
v -2.323160 0.721097 1.753503
v -1.823160 0.722977 0.624204
v -1.823160 0.721097 1.677162
v -2.269795 0.087780 0.624204
v -2.269795 0.087780 1.686561
v -2.269795 1.928171 0.624204
v -2.269795 1.928171 1.686561
v -2.269795 0.668198 0.614805
v -2.269795 0.670078 1.686561
v -2.269795 1.320777 0.624204
v -2.269795 1.320777 1.686561
v -2.269795 1.364371 0.624204
v -2.269795 1.370637 1.686561
v -2.269795 0.722977 0.624204
v -2.269795 0.721097 1.677162
v -2.323160 2.003089 1.332442
v -2.323160 2.003089 0.978323
v -1.823160 0.003090 1.332442
v -1.823160 0.003090 0.978323
v -1.823160 2.003089 0.978323
v -1.823160 2.003089 1.332442
v -1.823160 0.087780 0.978323
v -1.823160 0.087780 1.332442
v -1.823160 1.928171 0.978323
v -1.823160 1.928171 1.332442
v -1.823160 0.684176 1.330876
v -1.823160 1.338823 0.976067
v -1.823160 1.370637 0.978323
v -1.823160 0.722977 1.332442
v -2.269795 0.087780 0.978323
v -2.269795 0.087780 1.332442
v -2.269795 1.928171 0.978323
v -2.269795 1.928171 1.332442
v -2.269795 0.679477 0.997121
v -2.269795 0.684176 1.330876
v -2.269795 1.338823 0.976067
v -2.269795 1.320777 1.332442
v -2.269795 1.370637 0.978323
v -2.269795 1.353406 1.332442
v -2.269795 0.724543 0.998687
v -2.269795 0.722977 1.332442
v -1.823160 0.679287 0.982787
v -1.823160 0.679582 1.010164
v -1.855215 0.679477 0.997121
v -1.823160 0.724508 1.013009
v -1.823160 0.724512 0.985651
v -1.855215 0.724543 0.998687
v -1.823160 1.320960 1.276611
v -1.823160 1.320777 1.336057
v -1.841134 1.320777 1.329831
v -1.823160 1.353582 1.336057
v -1.823160 1.353582 1.276611
v -1.841134 1.353406 1.329831
vt 0.439331 0.556051
vt 0.449065 0.557993
vt 0.437007 0.617845
vt 0.428044 0.619231
vt 0.523084 0.738386
vt 0.510836 0.733988
vt 0.516963 0.725937
vt 0.525881 0.728408
vt 0.503687 0.665872
vt 0.516233 0.663477
vt 0.492356 0.668740
vt 0.805933 0.727790
vt 0.793288 0.727997
vt 0.791988 0.653217
vt 0.804655 0.653000
vt 0.806089 0.738062
vt 0.793449 0.738253
vt 0.146819 0.518168
vt 0.159667 0.519799
vt 0.150039 0.595616
vt 0.137191 0.594024
vt 0.602798 0.731555
vt 0.600493 0.657283
vt 0.602787 0.740707
vt 0.356387 0.544165
vt 0.347190 0.619260
vt 0.431109 0.630699
vt 0.343905 0.627612
vt 0.428663 0.699781
vt 0.341459 0.696694
vt 0.148802 0.606060
vt 0.135914 0.604502
vt 0.853894 0.020948
vt 0.854617 0.033335
vt 0.802775 0.036345
vt 0.802058 0.023948
vt 0.457972 0.559907
vt 0.444067 0.624615
vt 0.872971 0.718813
vt 0.868818 0.795024
vt 0.814877 0.792007
vt 0.819136 0.715845
vt 0.873581 0.707409
vt 0.819770 0.704455
vt 0.610135 0.740725
vt 0.699216 0.740968
vt 0.699035 0.807307
vt 0.609954 0.807063
vt 0.935843 0.482135
vt 0.935658 0.487014
vt 0.892143 0.487098
vt 0.891741 0.482394
vt 0.217825 0.605085
vt 0.238064 0.614960
vt 0.247308 0.607791
vt 0.337946 0.618423
vt 0.337148 0.626969
vt 0.246234 0.617360
vt 0.227116 0.528496
vt 0.256138 0.531960
vt 0.347177 0.543025
vt 0.706788 0.739526
vt 0.706712 0.729309
vt 0.610110 0.731438
vt 0.699111 0.729588
vt 0.704878 0.654866
vt 0.607904 0.657068
vt 0.697305 0.655049
vt 0.882559 0.481736
vt 0.877016 0.415576
vt 0.931694 0.414469
vt 0.868682 0.252755
vt 0.868886 0.259087
vt 0.815777 0.263336
vt 0.813653 0.255655
vt 0.878871 0.554344
vt 0.876881 0.639710
vt 0.823818 0.636582
vt 0.829480 0.553537
vt 0.858538 0.098676
vt 0.864659 0.185682
vt 0.811482 0.187496
vt 0.806538 0.101761
vt 0.873685 0.327431
vt 0.829233 0.418518
vt 0.822427 0.331042
vt 0.794425 0.804725
vt 0.707764 0.805998
vt 0.906351 0.029902
vt 0.958112 0.027638
vt 0.961969 0.092470
vt 0.910227 0.095604
vt 0.600928 0.804556
vt 0.521225 0.802235
vt 0.910622 0.255617
vt 0.920298 0.260024
vt 0.923150 0.324128
vt 0.989940 0.485763
vt 0.989415 0.556965
vt 0.934204 0.556411
vt 0.329969 0.694893
vt 0.239055 0.685285
vt 0.231216 0.683639
vt 0.141954 0.674739
vt 0.882749 0.489022
vt 0.910204 0.253716
vt 0.976504 0.244281
vt 0.926340 0.249924
vt 0.919122 0.246084
vt 0.912417 0.182525
vt 0.968550 0.177054
vt 0.981754 0.713097
vt 0.927581 0.710232
vt 0.930919 0.642054
vt 0.985436 0.644579
vt 0.978457 0.321417
vt 0.984411 0.410056
vt 0.926136 0.255568
vt 0.975448 0.254101
vt 0.989894 0.479136
vt 0.833677 0.488429
vt 0.879235 0.486874
vt 0.879721 0.483511
vt 0.834134 0.479954
vt 0.981140 0.724557
vt 0.926978 0.721675
vt 0.976993 0.800953
vt 0.922870 0.798007
vt 0.957382 0.015266
vt 0.905624 0.017530
vn 0.0000 0.0000 -1.0000
vn 1.0000 0.0000 0.0000
vn 0.0000 0.0000 1.0000
vn 0.0000 1.0000 0.0000
vn 0.0000 -0.0101 0.9999
vn 0.0000 -0.0241 -0.9997
vn 0.0000 0.0157 -0.9999
vn 0.0000 0.0254 -0.9997
vn 0.0000 0.0126 -0.9999
vn 0.0000 0.0063 1.0000
vn -0.0030 -0.9987 -0.0509
vn 0.0000 0.0368 0.9993
vn 0.0000 -0.0294 -0.9996
vn 0.0000 -1.0000 0.0000
vn -0.0000 1.0000 0.0047
vn 0.0000 -0.9992 -0.0396
vn 0.0000 0.9998 -0.0177
vn 0.0000 0.0162 0.9999
vn 0.0029 0.9988 0.0489
vn 0.0003 -0.9996 0.0295
vn 0.0000 1.0000 0.0055
vn -0.0001 -0.9999 0.0141
vn -0.0000 1.0000 -0.0042
vn -0.0000 0.9988 -0.0484
vn 0.0000 -0.9987 0.0512
vn 0.3921 0.0450 -0.9188
vn 0.3921 -0.0451 0.9188
vn 0.3273 0.0000 -0.9449
vn 0.9474 0.0000 0.3200
usemtl cupboard_lp
s off
f 14/1/1 4/2/1 8/3/1 15/4/1
f 26/5/2 22/6/2 6/7/2 16/8/2
f 16/8/3 6/7/3 2/9/3 13/10/3
f 22/6/4 17/11/4 2/9/4 6/7/4
f 5/12/3 12/13/3 9/14/3 1/15/3
f 19/16/2 24/17/2 12/13/2 5/12/2
f 3/18/1 10/19/1 11/20/1 7/21/1
f 42/22/5 16/8/5 13/10/5 39/23/5
f 44/24/2 26/5/2 16/8/2 42/22/2
f 40/25/6 14/1/6 15/4/6 41/26/6
f 41/26/2 15/4/2 25/27/2 43/28/2
f 43/28/3 25/27/3 53/29/3 59/30/3
f 7/21/2 11/20/2 23/31/2 20/32/2
f 65/33/2 70/34/2 24/35/2 19/36/2
f 8/3/4 4/2/4 18/37/4 21/38/4
f 68/39/4 63/40/4 17/41/4 22/42/4
f 15/4/2 8/3/2 21/38/2 25/27/2
f 72/43/2 68/39/2 22/42/2 26/44/2
f 37/45/7 50/46/7 62/47/7 58/48/7
f 74/49/2 75/50/2 99/51/2 95/52/2
f 11/20/2 30/53/2 36/54/2 23/31/2
f 46/55/2 29/56/2 35/57/2 49/58/2
f 10/19/8 28/59/8 30/53/8 11/20/8
f 45/60/9 27/61/9 29/56/9 46/55/9
f 24/17/2 38/62/2 32/63/2 12/13/2
f 50/46/2 37/45/2 31/64/2 47/65/2
f 12/13/3 32/63/3 33/66/3 9/14/3
f 47/65/10 31/64/10 34/67/10 48/68/10
f 74/49/11 95/52/11 97/69/11 84/70/11 83/71/11
f 29/56/2 41/26/2 43/28/2 35/57/2
f 27/61/1 40/25/1 41/26/1 29/56/1
f 37/45/2 44/24/2 42/22/2 31/64/2
f 31/64/3 42/22/3 39/23/3 34/67/3
f 32/63/12 47/65/12 48/68/12 33/66/12
f 38/62/2 50/46/2 47/65/2 32/63/2
f 28/59/13 45/60/13 46/55/13 30/53/13
f 30/53/2 46/55/2 49/58/2 36/54/2
f 73/72/2 76/73/2 50/74/2 38/75/2
f 86/76/2 80/77/2 54/78/2 60/79/2
f 78/80/2 82/81/2 56/82/2 52/83/2
f 88/84/2 84/70/2 58/85/2 62/86/2
f 38/62/1 24/17/1 52/87/1 56/88/1
f 69/89/4 23/90/4 51/91/4 77/92/4
f 72/43/14 26/44/14 54/78/14 80/77/14
f 26/5/1 44/24/1 60/93/1 54/94/1
f 76/73/15 92/95/15 94/96/15 87/97/15 88/84/15
f 73/72/16 38/75/16 56/82/16 82/81/16
f 75/50/17 43/98/17 59/99/17 85/100/17
f 49/58/3 35/57/3 57/101/3 61/102/3
f 23/31/18 36/54/18 55/103/18 51/104/18
f 100/105/19 99/51/19 75/50/19 85/100/19 86/76/19
f 90/106/2 92/95/2 76/73/2 73/72/2
f 36/107/20 89/108/20 91/109/20 81/110/20 55/111/20
f 50/74/21 76/73/21 88/84/21 62/86/21
f 25/112/14 71/113/14 79/114/14 53/115/14
f 71/113/14 72/43/14 80/77/14 79/114/14
f 24/35/4 70/34/4 78/80/4 52/83/4
f 70/34/4 69/89/4 77/92/4 78/80/4
f 61/116/2 57/117/2 83/71/2 87/97/2
f 87/97/2 83/71/2 84/70/2 88/84/2
f 51/91/2 55/111/2 81/110/2 77/92/2
f 77/92/2 81/110/2 82/81/2 78/80/2
f 59/99/2 53/115/2 79/114/2 85/100/2
f 85/100/2 79/114/2 80/77/2 86/76/2
f 91/109/22 90/106/22 73/72/22 82/81/22 81/110/22
f 94/96/23 93/118/23 49/119/23 61/116/23 87/97/23
f 35/120/2 43/98/2 75/50/2 74/49/2
f 44/121/24 98/122/24 100/105/24 86/76/24 60/79/24
f 35/120/25 74/49/25 83/71/25 57/117/25
f 97/69/14 96/123/14 37/124/14 58/85/14 84/70/14
f 25/112/2 21/125/2 67/126/2 71/113/2
f 71/113/2 67/126/2 68/39/2 72/43/2
f 21/125/4 18/127/4 64/128/4 67/126/4
f 67/126/4 64/128/4 63/40/4 68/39/4
f 20/129/2 23/90/2 69/89/2 66/130/2
f 66/130/2 69/89/2 70/34/2 65/33/2
f 90/106/26 91/109/26 94/96/26 92/95/26
f 91/109/27 89/108/27 93/118/27 94/96/27
f 36/107/2 49/119/2 93/118/2 89/108/2
f 96/123/28 97/69/28 100/105/28 98/122/28
f 97/69/29 95/52/29 99/51/29 100/105/29
f 96/123/2 98/122/2 44/121/2 37/124/2
