# Blender v3.1.2 OBJ File: 'room(export_by_ones).blend'
# www.blender.org
mtllib magic_ball_base.mtl
o magic_ball_base_Cylinder.005
v -2.184114 0.731076 -0.940329
v -2.184114 0.757640 -0.940329
v -2.113436 0.731076 -0.911053
v -2.113436 0.757640 -0.911053
v -2.084159 0.731076 -0.840374
v -2.084159 0.757640 -0.840374
v -2.113436 0.731076 -0.769696
v -2.113436 0.757640 -0.769696
v -2.184114 0.731076 -0.740420
v -2.184114 0.757640 -0.740420
v -2.254792 0.731076 -0.769696
v -2.254792 0.757640 -0.769696
v -2.284069 0.731076 -0.840374
v -2.284069 0.757640 -0.840374
v -2.254792 0.731076 -0.911053
v -2.254792 0.757640 -0.911053
v -2.138803 0.767462 -0.885685
v -2.184114 0.767462 -0.904453
v -2.120035 0.767462 -0.840374
v -2.138803 0.767462 -0.795064
v -2.184114 0.767462 -0.776296
v -2.229424 0.767462 -0.795064
v -2.248193 0.767462 -0.840374
v -2.229424 0.767462 -0.885685
v -2.166097 0.782430 -0.858391
v -2.184114 0.782430 -0.865854
v -2.158634 0.782430 -0.840374
v -2.166097 0.782430 -0.822358
v -2.184114 0.782430 -0.814895
v -2.202131 0.782430 -0.822358
v -2.209594 0.782430 -0.840374
v -2.202131 0.782430 -0.858391
v -2.138803 0.782430 -0.885685
v -2.184114 0.782430 -0.904453
v -2.120035 0.782430 -0.840374
v -2.138803 0.782430 -0.795064
v -2.184114 0.782430 -0.776296
v -2.229424 0.782430 -0.795064
v -2.248193 0.782430 -0.840374
v -2.229424 0.782430 -0.885685
v -2.138803 0.792253 -0.885685
v -2.184114 0.792253 -0.904453
v -2.120035 0.792253 -0.840374
v -2.138803 0.792253 -0.795064
v -2.184114 0.792253 -0.776296
v -2.229424 0.792253 -0.795064
v -2.248193 0.792253 -0.840374
v -2.229424 0.792253 -0.885685
v -2.143885 0.792253 -0.880604
v -2.184114 0.792253 -0.897267
v -2.127221 0.792253 -0.840374
v -2.143885 0.792253 -0.800145
v -2.184114 0.792253 -0.783482
v -2.224343 0.792253 -0.800145
v -2.241007 0.792253 -0.840374
v -2.224343 0.792253 -0.880604
v -2.143885 0.782430 -0.880604
v -2.184114 0.782430 -0.897267
v -2.127221 0.782430 -0.840374
v -2.143885 0.782430 -0.800145
v -2.184114 0.782430 -0.783482
v -2.224343 0.782430 -0.800145
v -2.241007 0.782430 -0.840374
v -2.224343 0.782430 -0.880604
v -2.166097 0.788277 -0.858391
v -2.184114 0.788277 -0.865854
v -2.158634 0.788277 -0.840374
v -2.166097 0.788277 -0.822358
v -2.184114 0.788277 -0.814895
v -2.202131 0.788277 -0.822358
v -2.209594 0.788277 -0.840374
v -2.202131 0.788277 -0.858391
vt 0.019222 0.945915
vt 0.026452 0.941908
vt 0.040654 0.959166
vt 0.034528 0.965635
vt 0.060592 0.971300
vt 0.056814 0.979877
vt 0.084452 0.976123
vt 0.083810 0.985894
vt 0.109557 0.972303
vt 0.112436 0.982131
vt 0.132852 0.959493
vt 0.139265 0.968185
vt 0.151269 0.938221
vt 0.161051 0.944651
vt 0.105505 0.958849
vt 0.123876 0.947689
vt 0.162768 0.907172
vt 0.175154 0.912128
vt 0.009938 0.923134
vt 0.017848 0.919910
vt 0.208123 0.899103
vt 0.240646 0.913206
vt 0.253671 0.946175
vt 0.239568 0.978698
vt 0.206599 0.991723
vt 0.174076 0.977620
vt 0.065734 0.959486
vt 0.049090 0.950188
vt 0.052422 0.946040
vt 0.067528 0.954298
vt 0.029356 0.919971
vt 0.036537 0.936442
vt 0.085263 0.962709
vt 0.137481 0.929950
vt 0.144284 0.908372
vt 0.111177 0.906270
vt 0.108801 0.915605
vt 0.106224 0.914408
vt 0.108762 0.905624
vt 0.131788 0.927000
vt 0.138468 0.906533
vt 0.103342 0.953309
vt 0.119732 0.943069
vt 0.085161 0.957002
vt 0.041181 0.933507
vt 0.034200 0.917723
vt 0.048932 0.928507
vt 0.057989 0.938771
vt 0.055998 0.941449
vt 0.045949 0.930421
vt 0.054528 0.943211
vt 0.068575 0.950819
vt 0.043599 0.914756
vt 0.040035 0.916201
vt 0.044105 0.931537
vt 0.122014 0.922311
vt 0.127036 0.904383
vt 0.130787 0.905509
vt 0.125505 0.923886
vt 0.037769 0.916194
vt 0.112406 0.935453
vt 0.115117 0.938159
vt 0.128134 0.925243
vt 0.134310 0.905180
vt 0.069378 0.948596
vt 0.084925 0.950783
vt 0.084937 0.953236
vt 0.100862 0.947329
vt 0.101760 0.949716
vt 0.116871 0.940156
vt 0.070337 0.945308
vt 0.084680 0.947239
vt 0.099341 0.943967
vt 0.059259 0.922938
vt 0.066173 0.929281
vt 0.074964 0.933041
vt 0.084835 0.933613
vt 0.094639 0.930688
vt 0.103067 0.924415
vt 0.055244 0.915133
vt 0.095561 0.895081
vt 0.104345 0.897618
vt 0.098219 0.918825
vt 0.089434 0.916288
vt 0.085017 0.908282
vt 0.087555 0.899498
vt 0.093347 0.928126
vt 0.100948 0.922405
vt 0.075571 0.930423
vt 0.084502 0.930853
vt 0.061408 0.921320
vt 0.067607 0.927082
vt 0.057454 0.913948
vn 0.0000 0.0000 -1.0000
vn 0.7071 0.0000 -0.7071
vn 1.0000 0.0000 0.0000
vn 0.7071 0.0000 0.7071
vn 0.0000 0.0000 1.0000
vn -0.7071 0.0000 0.7071
vn -1.0000 0.0000 0.0000
vn -0.1867 0.9645 0.1867
vn 0.0000 0.9645 0.2641
vn -0.7071 0.0000 -0.7071
vn 0.0000 -1.0000 0.0000
vn 0.0000 0.9645 -0.2641
vn -0.1867 0.9645 -0.1867
vn 0.1867 0.9645 -0.1867
vn 0.1867 0.9645 0.1867
vn 0.2641 0.9645 -0.0000
vn -0.2641 0.9645 0.0000
vn 0.0000 1.0000 0.0000
usemtl magic_ball_lp
s 1
f 1/1/1 2/2/1 4/3/2 3/4/2
f 3/4/2 4/3/2 6/5/3 5/6/3
f 5/6/3 6/5/3 8/7/4 7/8/4
f 7/8/4 8/7/4 10/9/5 9/10/5
f 9/10/5 10/9/5 12/11/6 11/12/6
f 11/12/6 12/11/6 14/13/7 13/14/7
f 12/11/8 10/9/9 21/15/9 22/16/8
f 13/14/7 14/13/7 16/17/10 15/18/10
f 15/19/10 16/20/10 2/2/1 1/1/1
f 1/21/11 3/22/11 5/23/11 7/24/11 9/25/11 11/26/11 13/14/11 15/18/11
f 19/27/3 17/28/2 33/29/2 35/30/3
f 2/2/12 16/20/13 24/31/13 18/32/12
f 4/3/14 2/2/12 18/32/12 17/28/14
f 8/7/15 6/5/16 19/27/16 20/33/15
f 14/13/17 12/11/8 22/16/8 23/34/17
f 10/9/9 8/7/15 20/33/15 21/15/9
f 16/17/13 14/13/17 23/34/17 24/35/13
f 6/5/16 4/3/14 17/28/14 19/27/16
f 32/36/10 31/37/7 71/38/7 72/39/10
f 24/35/10 23/34/7 39/40/7 40/41/10
f 22/16/6 21/15/5 37/42/5 38/43/6
f 20/33/4 19/27/3 35/30/3 36/44/4
f 17/28/2 18/32/1 34/45/1 33/29/2
f 18/32/1 24/31/10 40/46/10 34/45/1
f 23/34/7 22/16/6 38/43/6 39/40/7
f 21/15/5 20/33/4 36/44/4 37/42/5
f 58/47/5 57/48/6 49/49/6 50/50/5
f 35/30/3 33/29/2 41/51/2 43/52/3
f 64/53/4 58/47/5 50/50/5 56/54/4
f 33/29/2 34/45/1 42/55/1 41/51/2
f 63/56/3 64/57/4 56/58/4 55/59/3
f 34/45/1 40/46/10 48/60/10 42/55/1
f 62/61/2 63/56/3 55/59/3 54/62/2
f 40/41/10 39/40/7 47/63/7 48/64/10
f 50/50/18 49/49/18 41/51/18 42/55/18
f 49/49/18 51/65/18 43/52/18 41/51/18
f 51/65/18 52/66/18 44/67/18 43/52/18
f 52/66/18 53/68/18 45/69/18 44/67/18
f 53/68/18 54/62/18 46/70/18 45/69/18
f 54/62/18 55/59/18 47/63/18 46/70/18
f 55/59/18 56/58/18 48/64/18 47/63/18
f 56/54/18 50/50/18 42/55/18 48/60/18
f 36/44/4 35/30/3 43/52/3 44/67/4
f 57/48/6 59/71/7 51/65/7 49/49/6
f 37/42/5 36/44/4 44/67/4 45/69/5
f 59/71/7 60/72/10 52/66/10 51/65/7
f 38/43/6 37/42/5 45/69/5 46/70/6
f 60/72/10 61/73/1 53/68/1 52/66/10
f 39/40/7 38/43/6 46/70/6 47/63/7
f 61/73/1 62/61/2 54/62/2 53/68/1
f 26/74/18 25/75/18 57/48/18 58/47/18
f 25/75/18 27/76/18 59/71/18 57/48/18
f 27/76/18 28/77/18 60/72/18 59/71/18
f 28/77/18 29/78/18 61/73/18 60/72/18
f 29/78/18 30/79/18 62/61/18 61/73/18
f 30/79/18 31/37/18 63/56/18 62/61/18
f 31/37/18 32/36/18 64/57/18 63/56/18
f 32/80/18 26/74/18 58/47/18 64/53/18
f 65/81/18 66/82/18 72/39/18 71/38/18 70/83/18 69/84/18 68/85/18 67/86/18
f 30/79/6 29/78/5 69/87/5 70/88/6
f 28/77/4 27/76/3 67/89/3 68/90/4
f 25/75/2 26/74/1 66/91/1 65/92/2
f 26/74/1 32/80/10 72/93/10 66/91/1
f 31/37/7 30/79/6 70/88/6 71/38/7
f 29/78/5 28/77/4 68/90/4 69/87/5
f 27/76/3 25/75/2 65/92/2 67/89/3
