# Blender v3.1.2 OBJ File: 'room(export_by_ones).blend'
# www.blender.org
mtllib magic_ball.mtl
o magic_ball_Cylinder.038
v -0.000000 0.058165 -0.025465
v -0.000000 0.044517 -0.047053
v -0.000000 0.024093 -0.061478
v -0.000000 0.000000 -0.066544
v -0.000000 -0.024092 -0.061478
v -0.000000 -0.044517 -0.047053
v -0.000000 -0.058164 -0.025465
v 0.018006 0.058165 -0.018007
v 0.033271 0.044517 -0.033272
v 0.043471 0.024093 -0.043472
v 0.047053 0.000000 -0.047053
v 0.043471 -0.024092 -0.043472
v 0.033271 -0.044517 -0.033272
v 0.018006 -0.058164 -0.018007
v 0.025465 0.058165 -0.000000
v 0.047053 0.044517 -0.000000
v 0.061478 0.024093 -0.000000
v 0.066543 0.000000 -0.000000
v 0.061478 -0.024092 -0.000000
v 0.047053 -0.044517 -0.000000
v 0.025465 -0.058164 -0.000000
v 0.018006 0.058165 0.018006
v 0.033271 0.044517 0.033271
v 0.043471 0.024093 0.043471
v 0.047053 0.000000 0.047053
v 0.043471 -0.024092 0.043471
v 0.033271 -0.044517 0.033271
v 0.018006 -0.058164 0.018006
v -0.000000 0.058165 0.025465
v -0.000000 0.044517 0.047053
v -0.000000 0.024093 0.061478
v -0.000000 0.000000 0.066543
v -0.000000 -0.024092 0.061478
v -0.000000 -0.044517 0.047053
v -0.000000 -0.058164 0.025465
v -0.000000 0.061210 -0.000000
v -0.018007 0.058165 0.018006
v -0.033272 0.044517 0.033271
v -0.043472 0.024093 0.043471
v -0.047054 0.000000 0.047053
v -0.043472 -0.024092 0.043471
v -0.033272 -0.044517 0.033271
v -0.018007 -0.058164 0.018006
v -0.025465 0.058165 -0.000000
v -0.047054 0.044517 -0.000000
v -0.061479 0.024093 -0.000000
v -0.066544 0.000000 -0.000000
v -0.061479 -0.024092 -0.000000
v -0.047054 -0.044517 -0.000000
v -0.025465 -0.058164 -0.000000
v -0.000000 -0.061210 -0.000000
v -0.018007 0.058165 -0.018007
v -0.033272 0.044517 -0.033272
v -0.043472 0.024093 -0.043472
v -0.047054 0.000000 -0.047053
v -0.043472 -0.024092 -0.043472
v -0.033272 -0.044517 -0.033272
v -0.018007 -0.058164 -0.018007
vt 0.287646 0.947601
vt 0.291263 0.938558
vt 0.302304 0.943375
vt 0.301074 0.949577
vt 0.299206 0.929194
vt 0.317246 0.922450
vt 0.305653 0.935459
vt 0.319799 0.985690
vt 0.302767 0.979173
vt 0.308631 0.972928
vt 0.293912 0.972428
vt 0.289007 0.964692
vt 0.301934 0.960506
vt 0.304012 0.966179
vt 0.287106 0.956291
vt 0.300882 0.955147
vt 0.310935 0.958640
vt 0.311976 0.963438
vt 0.310466 0.950036
vt 0.310517 0.954358
vt 0.311596 0.938142
vt 0.310707 0.945086
vt 0.314398 0.969927
vt 0.319133 0.962328
vt 0.319956 0.968883
vt 0.318520 0.953756
vt 0.318737 0.957746
vt 0.317922 0.945225
vt 0.318306 0.949775
vt 0.317137 0.938764
vt 0.326517 0.953118
vt 0.326599 0.957440
vt 0.325009 0.944107
vt 0.326067 0.948854
vt 0.322601 0.937729
vt 0.325596 0.969483
vt 0.326411 0.962421
vt 0.331691 0.972132
vt 0.335956 0.957744
vt 0.334913 0.963999
vt 0.335062 0.946877
vt 0.335976 0.952223
vt 0.328234 0.934726
vt 0.332869 0.941280
vt 0.347457 0.942391
vt 0.349752 0.950452
vt 0.333838 0.928609
vt 0.342535 0.935017
vt 0.346569 0.968565
vt 0.338434 0.978384
vt 0.349625 0.959156
vt 0.366107 0.982416
vt 0.344584 0.992891
vt 0.377374 0.945500
vt 0.376869 0.964482
vt 0.354867 0.919259
vt 0.369270 0.929450
vt 0.337158 0.916888
vt 0.259475 0.940670
vt 0.271582 0.922299
vt 0.293866 0.915911
vt 0.299139 0.991256
vt 0.280725 0.988458
vt 0.265973 0.977412
vt 0.258136 0.960383
vn -0.0000 0.3825 -0.9239
vn -0.0000 0.7017 -0.7125
vn 0.5038 0.7017 -0.5038
vn 0.6533 0.3825 -0.6533
vn -0.0000 0.9243 -0.3817
vn 0.0000 1.0000 0.0000
vn 0.2699 0.9243 -0.2699
vn 0.0000 -1.0000 0.0000
vn -0.0000 -0.9243 -0.3817
vn 0.2699 -0.9243 -0.2699
vn -0.0000 -0.7017 -0.7125
vn -0.0000 -0.3825 -0.9239
vn 0.6533 -0.3825 -0.6533
vn 0.5038 -0.7017 -0.5038
vn 0.0000 -0.0000 -1.0000
vn 0.7071 -0.0000 -0.7071
vn 0.9239 -0.3825 -0.0000
vn 0.7125 -0.7017 -0.0000
vn 0.9239 0.3825 -0.0000
vn 1.0000 -0.0000 -0.0000
vn 0.3817 0.9243 0.0000
vn 0.7125 0.7017 -0.0000
vn 0.3817 -0.9243 0.0000
vn 0.5038 -0.7017 0.5038
vn 0.2699 -0.9243 0.2699
vn 0.7071 -0.0000 0.7071
vn 0.6533 -0.3825 0.6533
vn 0.5038 0.7017 0.5038
vn 0.6533 0.3825 0.6533
vn 0.2699 0.9243 0.2699
vn 0.0000 -0.0000 1.0000
vn -0.0000 -0.3825 0.9239
vn -0.0000 0.7017 0.7125
vn -0.0000 0.3825 0.9239
vn -0.0000 0.9243 0.3817
vn -0.0000 -0.9243 0.3817
vn -0.0000 -0.7017 0.7125
vn -0.2699 -0.9243 0.2699
vn -0.6533 -0.3825 0.6533
vn -0.5038 -0.7017 0.5038
vn -0.6533 0.3825 0.6533
vn -0.7071 -0.0000 0.7071
vn -0.2699 0.9243 0.2699
vn -0.5038 0.7017 0.5038
vn -0.9239 0.3825 -0.0000
vn -1.0000 -0.0000 -0.0000
vn -0.3817 0.9243 0.0000
vn -0.7125 0.7017 -0.0000
vn -0.7125 -0.7017 -0.0000
vn -0.3817 -0.9243 0.0000
vn -0.9239 -0.3825 -0.0000
vn -0.5038 -0.7017 -0.5038
vn -0.2699 -0.9243 -0.2699
vn -0.7071 -0.0000 -0.7071
vn -0.6533 -0.3825 -0.6533
vn -0.5038 0.7017 -0.5038
vn -0.6533 0.3825 -0.6533
vn -0.2699 0.9243 -0.2699
usemtl magic_ball_lp
s 1
f 3/1/1 2/2/2 9/3/3 10/4/4
f 1/5/5 36/6/6 8/7/7
f 51/8/8 7/9/9 14/10/10
f 6/11/11 5/12/12 12/13/13 13/14/14
f 4/15/15 3/1/1 10/4/4 11/16/16
f 2/2/2 1/5/5 8/7/7 9/3/3
f 7/9/9 6/11/11 13/14/14 14/10/10
f 5/12/12 4/15/15 11/16/16 12/13/13
f 13/14/14 12/13/13 19/17/17 20/18/18
f 11/16/16 10/4/4 17/19/19 18/20/20
f 9/3/3 8/7/7 15/21/21 16/22/22
f 14/10/10 13/14/14 20/18/18 21/23/23
f 12/13/13 11/16/16 18/20/20 19/17/17
f 10/4/4 9/3/3 16/22/22 17/19/19
f 8/7/7 36/6/6 15/21/21
f 51/8/8 14/10/10 21/23/23
f 21/23/23 20/18/18 27/24/24 28/25/25
f 19/17/17 18/20/20 25/26/26 26/27/27
f 17/19/19 16/22/22 23/28/28 24/29/29
f 15/21/21 36/6/6 22/30/30
f 51/8/8 21/23/23 28/25/25
f 20/18/18 19/17/17 26/27/27 27/24/24
f 18/20/20 17/19/19 24/29/29 25/26/26
f 16/22/22 15/21/21 22/30/30 23/28/28
f 26/27/27 25/26/26 32/31/31 33/32/32
f 24/29/29 23/28/28 30/33/33 31/34/34
f 22/30/30 36/6/6 29/35/35
f 51/8/8 28/25/25 35/36/36
f 27/24/24 26/27/27 33/32/32 34/37/37
f 25/26/26 24/29/29 31/34/34 32/31/31
f 23/28/28 22/30/30 29/35/35 30/33/33
f 28/25/25 27/24/24 34/37/37 35/36/36
f 51/8/8 35/36/36 43/38/38
f 34/37/37 33/32/32 41/39/39 42/40/40
f 32/31/31 31/34/34 39/41/41 40/42/42
f 30/33/33 29/35/35 37/43/43 38/44/44
f 35/36/36 34/37/37 42/40/40 43/38/38
f 33/32/32 32/31/31 40/42/42 41/39/39
f 31/34/34 30/33/33 38/44/44 39/41/41
f 29/35/35 36/6/6 37/43/43
f 40/42/42 39/41/41 46/45/45 47/46/46
f 38/44/44 37/43/43 44/47/47 45/48/48
f 43/38/38 42/40/40 49/49/49 50/50/50
f 41/39/39 40/42/42 47/46/46 48/51/51
f 39/41/41 38/44/44 45/48/48 46/45/45
f 37/43/43 36/6/6 44/47/47
f 51/8/8 43/38/38 50/50/50
f 42/40/40 41/39/39 48/51/51 49/49/49
f 50/50/50 49/49/49 57/52/52 58/53/53
f 48/51/51 47/46/46 55/54/54 56/55/55
f 46/45/45 45/48/48 53/56/56 54/57/57
f 44/47/47 36/6/6 52/58/58
f 51/8/8 50/50/50 58/53/53
f 49/49/49 48/51/51 56/55/55 57/52/52
f 47/46/46 46/45/45 54/57/57 55/54/54
f 45/48/48 44/47/47 52/58/58 53/56/56
f 54/59/57 53/60/56 2/2/2 3/1/1
f 52/61/58 36/6/6 1/5/5
f 51/8/8 58/62/53 7/9/9
f 57/63/52 56/64/55 5/12/12 6/11/11
f 55/65/54 54/59/57 3/1/1 4/15/15
f 53/60/56 52/61/58 1/5/5 2/2/2
f 58/62/53 57/63/52 6/11/11 7/9/9
f 56/64/55 55/65/54 4/15/15 5/12/12
